<svg width="121" height="152" viewBox="0 0 121 152" fill="none" xmlns="http://www.w3.org/2000/svg">
<path d="M35.3241 14.932L44.9127 30.6381L41.7586 39.5044L22.2026 34.9446L25.8615 14.6787L35.3241 14.932Z" fill="white"/>
<path d="M16.7769 122.467C29.1413 154.133 70.9027 156.413 83.5194 146.786C116.071 110.435 118.468 84.7222 119.856 72.056C121.117 60.7831 117.585 48.117 106.986 46.8504C103.201 36.8441 93.9913 27.0911 80.6176 29.371C74.0569 12.905 46.0478 0.112163 39.3609 10.8784C33.1787 20.8847 46.0478 22.9113 51.7253 27.5978C55.0056 30.2577 67.37 45.837 49.9589 57.9966C38.8562 65.7229 26.7442 56.9833 24.347 50.1435C21.4451 41.9105 25.104 34.0575 19.1742 32.0309C-0.129434 25.5712 0.501357 50.2702 2.6462 60.9098C4.79104 71.9293 22.833 83.8355 20.562 97.895C19.5526 105.748 15.2629 116.514 16.7769 122.467Z" fill="#FFCD00"/>
<path d="M80.1129 28.3582C79.482 28.7382 79.3559 29.4982 79.7344 30.1315C79.7344 30.1315 80.8699 31.9048 81.6269 35.9579C82.3839 40.1378 82.6362 46.4708 80.7437 55.5905C80.6176 56.2238 80.996 56.9837 81.753 57.1104C82.3839 57.2371 83.1409 56.8571 83.2671 56.0971C85.2857 46.7242 84.9073 40.0111 84.1502 35.5779C83.3932 31.1448 81.8793 28.8649 81.8793 28.8649C81.5008 28.2316 80.7437 27.9782 80.1129 28.3582Z" fill="#F5671F"/>
<path d="M106.734 45.7108C106.104 45.9641 105.725 46.5974 105.977 47.3574C105.977 47.3574 109.132 57.1103 104.085 68.5099C103.833 69.1432 104.085 69.9032 104.716 70.1565C105.347 70.4098 106.104 70.1565 106.356 69.5232C111.781 57.3637 108.375 46.5974 108.375 46.5974C108.122 45.8375 107.491 45.5841 106.734 45.7108Z" fill="#F5671F"/>
<path d="M34.9457 43.8101C34.3149 43.6835 33.5578 44.0635 33.4317 44.8235L32.4223 50.1432C32.2962 50.7765 32.6747 51.5365 33.4317 51.6632C34.0625 51.7898 34.8195 51.4099 34.9457 50.6499L35.955 45.3301C36.0812 44.5701 35.5765 43.9368 34.9457 43.8101Z" fill="#8EBFFF"/>
<path d="M42.3889 43.5578C41.7581 43.6845 41.2535 44.4444 41.5058 45.0777L42.7675 50.3976C42.8937 51.0309 43.6506 51.5375 44.2814 51.2842C44.9123 51.1575 45.417 50.3976 45.1646 49.7642L43.9029 44.4444C43.7768 43.8111 43.0198 43.3045 42.3889 43.5578Z" fill="#8EBFFF"/>
<path d="M49.0759 40.0114C48.6974 40.1381 48.445 40.2648 48.3189 40.5181C47.9404 41.1514 48.0665 41.9114 48.6974 42.2914L53.2394 45.3313C53.8703 45.7112 54.6272 45.5846 55.0057 44.9513C55.3842 44.318 55.2581 43.558 54.6272 43.178L50.0852 40.1381C49.7067 40.0115 49.3283 39.8848 49.0759 40.0114Z" fill="#8EBFFF"/>
<path d="M12.2352 11.2588C11.8567 11.3855 11.6043 11.5121 11.4781 11.7654C11.0996 12.3987 11.352 13.1587 11.8567 13.5387L16.5248 16.4519C17.1556 16.8319 17.9127 16.7052 18.2912 16.0719C18.6697 15.4386 18.5435 14.6786 17.9127 14.2987L13.2445 11.3855C12.866 11.2588 12.6137 11.2588 12.2352 11.2588Z" fill="#8EBFFF"/>
<path d="M19.1744 4.16589C18.5436 4.54588 18.4174 5.30584 18.7959 5.93915L21.8239 10.499C22.2024 11.1323 22.9594 11.2589 23.5903 10.8789C24.2211 10.499 24.3472 9.739 23.9687 9.10569L20.9407 4.54586C20.5622 3.91256 19.6791 3.78591 19.1744 4.16589Z" fill="#8EBFFF"/>
<path d="M30.9081 0.619149C30.2773 0.492487 29.5203 0.999118 29.5203 1.63243L28.6371 7.07886C28.511 7.71217 29.0156 8.47216 29.6465 8.59882C30.2773 8.72548 31.0343 8.21885 31.1605 7.58554L32.0437 2.13907C32.1698 1.3791 31.6651 0.74581 30.9081 0.619149Z" fill="#8EBFFF"/>
<path d="M47.9405 5.68555C44.0293 5.81221 40.4967 7.20546 38.478 10.2453C36.8378 12.9052 36.3331 15.3118 36.8378 17.3384C37.3425 19.365 38.8564 21.0116 40.4966 22.2782C43.9031 24.8114 48.5714 26.458 51.0947 28.6113C52.4825 29.7512 56.3937 34.1844 57.5292 39.6309C58.7909 44.9506 57.7815 51.1571 49.3283 57.1102C44.1555 60.6567 38.8565 60.4034 34.4406 58.5034C30.0248 56.6035 26.6182 52.8037 25.6089 49.8905C24.2211 46.0906 24.4734 42.1641 24.2211 38.8709C24.0949 37.2243 23.9687 35.5777 23.3379 34.1844C22.7071 32.7911 21.4454 31.6512 19.679 31.0179C14.6323 29.3713 10.595 29.6246 7.56701 31.3979C4.539 33.1711 2.77269 36.3377 1.76335 39.8842C-0.381495 46.9773 0.375493 55.8436 1.511 61.29C1.63717 61.9233 2.26802 62.43 3.02502 62.3033C3.65586 62.1766 4.16051 61.5433 4.03434 60.7834C3.025 55.5902 2.39418 46.8506 4.28669 40.5175C5.16986 37.351 6.68381 34.8177 8.95482 33.5511C11.2258 32.1578 14.38 31.9045 18.9221 33.4244C20.1837 33.8044 20.6884 34.4377 21.0669 35.3244C21.4454 36.211 21.6977 37.4776 21.8239 38.9976C21.9501 42.1641 21.8239 46.3439 23.3379 50.7771C24.7257 54.7036 28.5107 58.7568 33.5574 60.91C38.6041 63.0633 44.9125 63.3166 50.8423 59.2634C59.9264 52.9303 61.4404 45.3306 60.0525 39.1242C58.6647 33.0445 54.7535 28.358 52.7349 26.7114C49.5807 24.0515 44.9125 22.4049 42.0106 20.2516C40.4966 19.1117 39.6134 18.0984 39.2349 16.8318C38.8564 15.5651 39.1088 13.9185 40.6228 11.6386C42.0107 9.35871 44.534 8.34544 47.9405 8.21878C51.347 8.21878 55.5106 9.23206 59.8003 11.132C68.2535 14.9318 76.7067 22.1515 79.7347 29.8779C79.987 30.5112 80.744 30.8912 81.3748 30.6379C82.0057 30.3846 82.3841 29.6246 82.1318 28.9913C78.7253 20.2516 69.7674 12.9053 60.9357 8.85209C56.2675 6.8255 51.8517 5.68555 47.9405 5.68555Z" fill="#F5671F"/>
<path d="M25.8615 13.4121C25.7353 13.4121 25.7353 13.4121 25.6091 13.4121C25.6091 13.4121 25.6092 13.4121 25.483 13.4121H25.3568H25.2306C25.2306 13.4121 25.1045 13.4121 25.1045 13.5388C25.1045 13.5388 24.9783 13.5388 24.9783 13.6654L24.8521 13.7921C24.726 13.9188 24.726 14.0454 24.5998 14.2988L20.9409 34.5646V34.6913C20.9409 34.6913 20.9409 34.6913 20.9409 34.818V34.9446C20.9409 34.9446 20.9409 34.9446 20.9409 35.0713V35.1979C20.9409 35.1979 20.9409 35.1979 20.9409 35.3246C20.9409 35.4513 20.941 35.4513 21.0671 35.4513L21.1933 35.5779C21.1933 35.5779 21.1933 35.5779 21.3195 35.7046C21.3195 35.7046 21.4456 35.8312 21.5718 35.8312H21.698C21.698 35.8312 21.6979 35.8312 21.8241 35.8312L41.2539 40.3911H41.38C41.38 40.3911 41.3801 40.3911 41.5062 40.3911C41.6324 40.3911 41.6323 40.3911 41.7585 40.3911C41.7585 40.3911 41.7586 40.3911 41.8847 40.3911C42.0109 40.3911 42.0109 40.3911 42.1371 40.3911C42.1371 40.3911 42.2632 40.3911 42.2632 40.2644C42.3894 40.2644 42.3894 40.1377 42.5156 40.1377L42.6417 40.0111C42.6417 39.8844 42.7679 39.8844 42.7679 39.7578L45.9221 30.8914C46.0483 30.5115 46.0482 30.1315 45.7959 29.7515L43.2725 25.6983C43.2725 25.445 43.0202 25.1917 42.7679 24.9383L39.866 20.1252C39.866 19.9985 39.7399 19.8719 39.7399 19.8719L36.2072 14.1721C35.9549 13.7921 35.5764 13.5388 35.1979 13.5388L25.8615 13.4121ZM28.511 16.072L34.567 16.1987L36.7118 19.6186L31.539 19.7452C30.4035 18.3519 29.3941 16.9586 28.511 16.072ZM26.4923 17.592C27.2493 18.6053 28.3848 19.8719 29.5204 21.5185L24.4737 29.2448L26.4923 17.592ZM38.2258 22.1518L40.7492 26.4583L38.8567 30.8914C37.0903 27.8516 35.0717 24.9383 33.3054 22.4051L38.2258 22.1518ZM31.1605 23.6717C33.053 26.3316 35.1978 29.4982 36.9642 32.6647L24.5998 33.5513L31.1605 23.6717ZM42.3893 28.9915L43.5249 30.7648L41.6324 35.9579C41.2539 35.1979 40.8753 34.3113 40.4968 33.5513L42.3893 28.9915ZM38.3521 35.0713C38.8567 35.9579 39.2352 36.8445 39.6137 37.7312L30.5297 35.5779L38.3521 35.0713Z" fill="#FF9CF6"/>
</svg>
