<svg width="109" height="120" viewBox="0 0 109 120" fill="none" xmlns="http://www.w3.org/2000/svg">
<g clip-path="url(#clip0_2700_1029)">
<path d="M105.186 36.4596C94.9424 8.09277 63.4705 -6.47879 35.1543 4.19464C8.28082 14.3281 -6.09668 44.2137 2.77957 71.5259C8.82082 90.1137 23.8396 103.074 41.3558 107.394C45.4311 108.398 48.7724 111.309 50.1983 115.266L51.7677 119.62L97.5664 103.091L95.9971 98.7284C94.588 94.8218 95.2293 90.4681 97.7014 87.1268C108.147 73.0531 111.581 54.1868 105.186 36.4596Z" fill="#FFCD00"/>
<path d="M84.2522 35.0587C84.2522 35.0587 84.2438 35.1009 84.2354 35.1263C84.2354 35.1263 84.2354 35.1094 84.2438 35.1094C84.2775 35.025 84.2607 35.0081 84.2438 35.0587H84.2522Z" fill="#ECEBFF"/>
<path d="M103.945 58.3296C100.553 58.2368 97.3045 57.604 94.461 56.3805C94.0307 49.4955 92.0057 42.5093 88.3607 37.4299C86.2007 34.4177 82.5557 31.878 78.666 33.1774C72.7851 35.2699 72.7345 42.3405 74.0254 47.2005C75.4851 52.8283 78.5817 57.4099 82.657 60.8018C82.117 67.1805 79.2735 72.4371 72.1692 71.0449C69.6632 70.4627 66.8535 69.4502 64.2295 68.0327C69.3764 59.9918 70.296 47.5971 59.6142 43.7327C50.0039 40.3662 39.8873 47.2258 41.482 57.8149C41.9123 61.4262 43.1442 64.7083 44.9498 67.6277C42.7307 68.8005 40.3767 69.7033 38.1492 70.3362C28.5895 73.0783 26.2945 63.9996 26.5307 56.3046C26.5139 51.9677 27.3829 47.2427 29.0535 43.5471L21.8395 37.5733C20.7848 38.7799 19.8482 40.1721 19.0889 41.5558C13.3935 52.4908 11.7651 70.1421 21.8479 79.2124C27.0707 84.0386 34.7404 85.1862 41.3723 83.389C46.207 82.1318 50.7717 80.1743 54.8217 77.4237C59.4285 80.4021 64.7189 82.4524 69.8995 83.4649C80.691 85.5912 90.7064 79.1196 93.4232 68.6149C93.592 67.9568 93.7439 67.2733 93.8789 66.5815C97.1189 67.4674 100.528 67.8555 103.953 67.7036C105.025 67.7036 106.012 67.6024 106.915 67.4505C107.657 64.3877 108.13 61.249 108.324 58.068C107.084 58.2199 105.607 58.338 103.953 58.338L103.945 58.3296ZM84.2432 41.7246C84.2432 41.7246 84.2432 41.7415 84.2348 41.7415C84.2348 41.7162 84.2432 41.6908 84.2517 41.674C84.2685 41.6233 84.277 41.6402 84.2517 41.7246H84.2432Z" fill="white"/>
<path d="M46.7973 52.1201C46.3754 52.1201 46.0464 52.3986 46.0717 52.7361C46.2911 55.2504 47.5904 64.5739 54.5598 64.5739C61.5292 64.5739 62.4742 55.2082 62.6007 52.7192C62.6176 52.3901 62.2886 52.1201 61.8751 52.1201H46.7973Z" fill="#D34F16"/>
<path d="M54.5349 54.9541C51.6577 54.9541 49.0084 55.7472 46.8652 57.0804C47.8524 60.5482 49.9787 64.5729 54.5602 64.5729C59.1418 64.5729 61.1584 60.4554 61.9937 56.9538C59.8927 55.6966 57.3193 54.9541 54.5349 54.9541Z" fill="#F5671F"/>
</g>
<defs>
<clipPath id="clip0_2700_1029">
<rect width="108.253" height="118.927" fill="white" transform="translate(0.155273 0.693359)"/>
</clipPath>
</defs>
</svg>
