<svg width="530" height="612" viewBox="0 0 530 612" fill="none" xmlns="http://www.w3.org/2000/svg">
<path d="M459.265 245.588C420.091 137.178 299.731 81.4902 191.438 122.281C88.6641 161.008 33.679 275.222 67.6252 379.6C90.7292 450.637 148.167 500.167 215.156 516.676C230.741 520.513 243.519 531.638 248.973 546.761L254.975 563.4L430.126 500.231L424.125 483.56C418.736 468.63 421.188 451.992 430.643 439.222C470.591 385.437 483.724 313.336 459.265 245.588Z" fill="#FFA800"/>
<mask id="mask0_1_437" style="mask-type:alpha" maskUnits="userSpaceOnUse" x="57" y="108" width="415" height="456">
<path d="M459.265 245.587C420.091 137.178 299.731 81.4899 191.438 122.281C88.6641 161.007 33.679 275.221 67.6252 379.6C90.7292 450.637 148.167 500.166 215.156 516.676C230.741 520.513 243.519 531.638 248.973 546.761L254.974 563.4L430.126 500.231L424.125 483.56C418.736 468.63 421.188 451.991 430.643 439.222C470.591 385.436 483.724 313.335 459.265 245.587Z" fill="#FFCD00"/>
</mask>
<g mask="url(#mask0_1_437)">
<ellipse cx="264.6" cy="315.45" rx="184.5" ry="184.95" fill="#FF8400"/>
<ellipse cx="264.15" cy="313.2" rx="159.75" ry="160.2" fill="#FFA800"/>
<ellipse cx="264.15" cy="313.2" rx="130.05" ry="130.5" fill="#FFCD00"/>
</g>
<g clip-path="url(#clip0_1_437)">
<path d="M94.5985 139.676C91.6776 134.945 83.3523 121.473 80.5532 116.941L96.0105 108.899L98.9439 116.474C100.603 120.76 106.444 135.837 108 139.852L97.938 145.087L94.5985 139.679V139.676Z" fill="#FFCB00"/>
<path d="M78.882 157.376C74.3179 154.087 60.2789 143.981 55.9397 140.858L67.0016 127.37L72.6434 133.114C75.8736 136.403 88.3256 149.082 91.3153 152.128L83.9927 161.055L78.882 157.376Z" fill="#FFCB00"/>
<path d="M68.9478 178.711C63.5902 177.583 48.3297 174.374 43.2002 173.294L48.2579 156.325L55.6273 159.416C59.7977 161.164 74.4615 167.317 78.3665 168.953L75.0738 179.999L68.9509 178.711H68.9478Z" fill="#FFCB00"/>
</g>
<defs>
<clipPath id="clip0_1_437">
<rect width="64.8" height="71.1" fill="white" transform="translate(43.2002 108.9)"/>
</clipPath>
</defs>
</svg>
