<svg width="90" height="60" viewBox="0 0 90 60" fill="none" xmlns="http://www.w3.org/2000/svg">
<rect width="90" height="60" fill="white"/>
<mask id="mask0_1_5" style="mask-type:luminance" maskUnits="userSpaceOnUse" x="30" y="5" width="29" height="51">
<path d="M30.9993 55.0005H58.9993L58.9993 5.00016H30.9993L30.9993 55.0005Z" fill="white"/>
</mask>
<g mask="url(#mask0_1_5)">
<path fill-rule="evenodd" clip-rule="evenodd" d="M48.4493 51.4601C47.3625 52.2605 46.2105 52.9812 45.0021 53.6138C43.7936 52.9812 42.6418 52.2605 41.5548 51.4601C42.7612 50.9538 43.913 50.3512 45.0021 49.6606C46.0911 50.3502 47.2441 50.9538 48.4493 51.4601Z" fill="#2B2011"/>
<path fill-rule="evenodd" clip-rule="evenodd" d="M53.4379 46.664C52.6483 47.6551 51.7852 48.5878 50.8581 49.4555C49.6517 49.0435 48.4987 48.5227 47.4087 47.9077C48.3336 47.1384 49.1956 46.2997 49.9852 45.3999C51.0733 45.9382 52.2295 46.3649 53.4379 46.664Z" fill="#2B2011"/>
<path fill-rule="evenodd" clip-rule="evenodd" d="M56.8606 41.0228C56.3682 42.1381 55.7971 43.2138 55.1545 44.242C53.9419 44.035 52.7835 43.6756 51.7009 43.1848C52.3434 42.2375 52.9147 41.2404 53.4059 40.2007C54.4757 40.6542 55.6394 40.94 56.8606 41.0228Z" fill="#2B2011"/>
<path fill-rule="evenodd" clip-rule="evenodd" d="M58.6958 34.787C58.505 35.9952 58.2291 37.1756 57.8731 38.323C57.7836 38.3259 57.6941 38.3271 57.6036 38.3271C56.4676 38.3271 55.3903 38.0878 54.4194 37.6592C54.7828 36.5482 55.061 35.3999 55.2432 34.2217C55.9156 34.6658 56.7277 34.9257 57.6024 34.9257C57.9809 34.9257 58.3463 34.8771 58.6948 34.7859L58.6958 34.787Z" fill="#2B2011"/>
<path fill-rule="evenodd" clip-rule="evenodd" d="M58.9997 29.4854V30.8697C58.9869 31.6101 58.3646 32.2064 57.5995 32.2064C56.8345 32.2064 56.1994 31.5975 56.1994 30.8458V29.4854H58.9997Z" fill="#2B2011"/>
<path d="M55.4989 26.7647H58.9993V23.3633H55.4989V26.7647Z" fill="#2B2011"/>
<path d="M55.4989 20.6431H58.9993V17.2417H55.4989V20.6431Z" fill="#2B2011"/>
<path d="M49.2026 20.6431H52.703V17.2417H49.2026V20.6431Z" fill="#2B2011"/>
<path d="M55.4989 14.522H58.9993V11.1206H55.4989V14.522Z" fill="#2B2011"/>
<path fill-rule="evenodd" clip-rule="evenodd" d="M52.7005 11.1211V14.5215H49.2001H47.8008H42.201H40.8008H37.3004V11.1211H52.7005Z" fill="#2B2011"/>
<path d="M31 14.522H34.5006V11.1207H31V14.522Z" fill="#2B2011"/>
<path fill-rule="evenodd" clip-rule="evenodd" d="M31 8.40039H34.5006H35.9009H54.1003H55.4996H59V5H31V8.40039Z" fill="#2B2011"/>
<path fill-rule="evenodd" clip-rule="evenodd" d="M39.1429 49.4567C40.3493 49.0445 41.5034 48.5237 42.5924 47.9087C41.6675 47.1393 40.8054 46.3007 40.0158 45.4009C38.9278 45.9394 37.7726 46.3658 36.5641 46.6652C37.3538 47.656 38.217 48.589 39.1441 49.4567H39.1429Z" fill="#2B2011"/>
<path fill-rule="evenodd" clip-rule="evenodd" d="M34.849 44.2415C36.0618 44.0343 37.2201 43.6749 38.3027 43.1843C37.6601 42.2368 37.089 41.2397 36.5978 40.2002C35.5278 40.6537 34.3642 40.9394 33.1431 41.0223C33.6354 42.1374 34.2065 43.2132 34.849 44.2415Z" fill="#2B2011"/>
<path fill-rule="evenodd" clip-rule="evenodd" d="M32.1323 38.323C32.2218 38.3259 32.3113 38.3271 32.4018 38.3271C33.5378 38.3271 34.6151 38.0878 35.586 37.6592C35.2226 36.5482 34.9444 35.3999 34.7622 34.2217C34.0898 34.6658 33.2767 34.9257 32.4018 34.9257C32.0235 34.9257 31.6581 34.8771 31.3096 34.7859C31.4992 35.9943 31.7763 37.1746 32.1323 38.3218V38.323Z" fill="#2B2011"/>
<path fill-rule="evenodd" clip-rule="evenodd" d="M31.001 30.8699V29.4855H33.8005V30.846C33.8005 31.5977 33.1738 32.2066 32.4003 32.2066C31.6267 32.2066 31.0138 31.6102 31 30.8699H31.001Z" fill="#2B2011"/>
<path d="M31 26.7645H34.5006V23.3632H31V26.7645Z" fill="#2B2011"/>
<path fill-rule="evenodd" clip-rule="evenodd" d="M37.3004 23.3643V30.8461C37.3004 32.6238 37.5424 34.3468 37.9963 35.9848C39.3006 34.644 40.0998 32.8363 40.0998 30.8461V23.3643H37.3004Z" fill="#2B2011"/>
<path fill-rule="evenodd" clip-rule="evenodd" d="M39.0089 38.7754C39.4873 39.8336 40.0584 40.8421 40.7128 41.7937C41.673 41.1041 42.5392 40.2985 43.2893 39.3988C42.5798 38.2795 42.0043 37.0701 41.5877 35.7935C40.9313 36.9418 40.0532 37.9545 39.0099 38.7764L39.0089 38.7754Z" fill="#2B2011"/>
<path d="M37.3004 20.6431H40.8008V17.2417H37.3004V20.6431Z" fill="#2B2011"/>
<path fill-rule="evenodd" clip-rule="evenodd" d="M43.6007 17.2432V30.8463C43.6007 32.9741 44.1038 34.989 45.001 36.7824C45.8981 34.989 46.4012 32.9741 46.4012 30.8463V17.2432H43.6017H43.6007Z" fill="#2B2011"/>
<path fill-rule="evenodd" clip-rule="evenodd" d="M45.0015 41.644C44.228 42.4952 43.3649 43.2675 42.426 43.9479C43.2124 44.8073 44.0734 45.5982 45.0015 46.3127C45.9298 45.5982 46.7919 44.8063 47.5771 43.9479C46.6384 43.2685 45.7753 42.4962 45.0015 41.644Z" fill="#2B2011"/>
<path fill-rule="evenodd" clip-rule="evenodd" d="M49.2887 41.7937C48.3285 41.1039 47.4622 40.2985 46.7122 39.3986C47.4217 38.2795 47.9972 37.0701 48.415 35.7935C49.0714 36.9416 49.9493 37.9543 50.9926 38.7764C50.5142 39.8345 49.9431 40.843 49.2887 41.7947V41.7937Z" fill="#2B2011"/>
<path fill-rule="evenodd" clip-rule="evenodd" d="M52.0064 35.9848C50.7023 34.644 49.903 32.8363 49.903 30.8461V23.3643H52.7023V30.8461C52.7023 32.6238 52.4605 34.3468 52.0064 35.9848Z" fill="#2B2011"/>
<path d="M31 20.6433H34.5006V17.2419H31V20.6433Z" fill="#2B2011"/>
</g>
</svg>
