<svg width="90" height="60" viewBox="0 0 90 60" fill="none" xmlns="http://www.w3.org/2000/svg">
<rect width="90" height="60" fill="white"/>
<path fill-rule="evenodd" clip-rule="evenodd" d="M42.9549 21.8952C44.9684 21.8952 46.6005 20.3517 46.6005 18.4476C46.6005 16.5435 44.9684 15 42.9549 15C40.9414 15 39.3093 16.5435 39.3093 18.4476C39.3093 20.3517 40.9414 21.8952 42.9549 21.8952ZM37.2701 29.896C37.2701 34.9249 35.5507 37.9122 34.0313 39.5758C33.1117 40.5589 31.0325 42.2984 27.5939 43.0547C26.0345 43.3949 24.6751 43.4704 23.0756 43.4704H12V16.7751H20.9965C21.3429 16.7751 21.683 16.7751 22.0194 16.7775C22.5374 16.7809 23.0465 16.79 23.5554 16.8129C23.6231 16.8172 23.7019 16.8215 23.791 16.8265C25.2828 16.9093 29.667 17.1532 32.9118 19.6866C33.4316 20.0648 34.2712 20.7831 35.151 22.1065C36.1506 23.5812 37.2701 25.9633 37.2701 29.896ZM30.1929 30.1227C30.1929 28.081 29.953 26.2281 28.5935 24.6023C28.1937 24.1485 27.354 23.241 25.8345 22.7873C24.6181 22.4037 23.5036 22.4061 22.2718 22.4087H22.2694L21.9561 22.4091H19.1172V38.1012H21.2763C23.3555 38.1012 25.7546 37.9878 27.5939 36.7021C29.0333 35.6812 30.1929 33.7528 30.1929 30.1227ZM46.0473 43.4704H39.9296V23.7326H46.0473V43.4704ZM62.5604 43.4704H68.598C68.0782 42.7521 67.9983 42.1094 67.9983 40.4077V28.8751C67.9983 27.7406 67.7984 27.2112 67.5584 26.6819C66.159 23.846 62.2005 23.2032 59.2817 23.2032C58.8019 23.2032 57.8024 23.2032 56.6028 23.3544L56.5174 23.3677C55.7164 23.4917 53.5408 23.8286 51.8847 25.3584C50.4391 26.7256 50.2992 28.2875 50.2228 29.141C50.2169 29.2081 50.2113 29.2709 50.2054 29.3288H56.3629C56.3823 29.2278 56.4041 29.1336 56.4271 29.0465C56.4491 28.9628 56.4723 28.8859 56.4957 28.816C56.5197 28.7441 56.5438 28.6798 56.5669 28.6238C56.5942 28.5573 56.62 28.5022 56.6428 28.4591C56.9627 27.8162 57.8024 27.0223 59.6016 27.0223C61.8407 27.0223 61.9606 28.7237 61.9606 29.4044V30.5009C58.0023 31.1814 55.1633 31.711 53.604 32.3538C52.6844 32.7319 49.3257 34.4334 49.3257 37.9878C49.3257 38.9331 49.5656 39.9162 50.0055 40.7481C50.6852 42.0716 52.4044 44 56.163 44C58.7619 44 60.5212 43.0169 61.2809 42.5251C61.7207 42.2606 62.1206 41.9958 62.5604 41.6934V43.4704ZM58.0023 35.2653L61.9606 34.0174C61.9606 35.8702 61.8807 37.723 60.0814 38.9331C59.8015 39.1221 58.8419 39.7272 57.7224 39.7272C56.4429 39.7272 55.8431 39.0087 55.6032 38.6305C55.4033 38.2523 55.3633 37.8366 55.3633 37.723C55.3633 36.9669 55.7632 36.135 57.2826 35.53C57.5225 35.4164 57.7624 35.3408 58.0023 35.2653ZM78 28.0119C78 29.916 76.3677 31.4595 74.3544 31.4595C72.341 31.4595 70.7087 29.916 70.7087 28.0119C70.7087 26.1078 72.341 24.5643 74.3544 24.5643C76.3677 24.5643 78 26.1078 78 28.0119ZM74.3544 43.9153C76.3677 43.9153 78 42.3718 78 40.4677C78 38.5636 76.3677 37.0201 74.3544 37.0201C72.341 37.0201 70.7087 38.5636 70.7087 40.4677C70.7087 42.3718 72.341 43.9153 74.3544 43.9153Z" fill="#2B2011"/>
</svg>
