<svg width="14" height="15" viewBox="0 0 14 15" fill="none" xmlns="http://www.w3.org/2000/svg">
<path d="M9.917 1.82716C10.69 1.82716 11.422 2.13316 11.977 2.68316C12.2486 2.95302 12.4641 3.27399 12.611 3.62756C12.7579 3.98112 12.8334 4.36028 12.833 4.74316V10.5772C12.833 11.3502 12.527 12.0822 11.977 12.6372C11.7071 12.9088 11.3862 13.1242 11.0326 13.2712C10.679 13.4181 10.2999 13.4935 9.917 13.4932H4.083C3.70012 13.4935 3.32097 13.4181 2.9674 13.2712C2.61383 13.1242 2.29286 12.9088 2.023 12.6372C1.7514 12.3673 1.53592 12.0463 1.389 11.6928C1.24208 11.3392 1.16663 10.96 1.167 10.5772V4.74316C1.167 3.97016 1.473 3.23816 2.023 2.68316C2.29286 2.41155 2.61383 2.19607 2.9674 2.04916C3.32097 1.90224 3.70012 1.82679 4.083 1.82716H9.917ZM9.917 0.660156H4.083C3.00109 0.663322 1.96441 1.09451 1.19938 1.85954C0.434355 2.62456 0.0031658 3.66125 0 4.74316V10.5772C0.0031658 11.6591 0.434355 12.6958 1.19938 13.4608C1.96441 14.2258 3.00109 14.657 4.083 14.6602H9.917C10.9989 14.657 12.0356 14.2258 12.8006 13.4608C13.5656 12.6958 13.9968 11.6591 14 10.5772V4.74316C13.9968 3.66125 13.5656 2.62456 12.8006 1.85954C12.0356 1.09451 10.9989 0.663322 9.917 0.660156ZM10.792 4.74316C10.677 4.74342 10.5631 4.72097 10.4568 4.67709C10.3506 4.63321 10.254 4.56877 10.1727 4.48746C10.0914 4.40616 10.0269 4.3096 9.98307 4.20332C9.93919 4.09704 9.91674 3.98314 9.917 3.86816C9.917 3.6951 9.96832 3.52593 10.0645 3.38203C10.1606 3.23814 10.2973 3.12599 10.4572 3.05976C10.617 2.99353 10.793 2.97621 10.9627 3.00997C11.1324 3.04373 11.2883 3.12707 11.4107 3.24944C11.5331 3.37181 11.6164 3.52772 11.6502 3.69745C11.6839 3.86719 11.6666 4.04312 11.6004 4.203C11.5342 4.36289 11.422 4.49955 11.2781 4.59569C11.1342 4.69184 10.9651 4.74316 10.792 4.74316ZM9.333 7.66016C9.33247 7.04157 9.0865 6.44847 8.6491 6.01106C8.21169 5.57365 7.61859 5.32769 7 5.32716C6.38141 5.32769 5.78831 5.57365 5.3509 6.01106C4.9135 6.44847 4.66753 7.04157 4.667 7.66016C4.66753 8.27874 4.9135 8.87184 5.3509 9.30925C5.78831 9.74666 6.38141 9.99263 7 9.99316C7.61859 9.99263 8.21169 9.74666 8.6491 9.30925C9.0865 8.87184 9.33247 8.27874 9.333 7.66016ZM3.5 7.66016C3.5 6.7319 3.86875 5.84166 4.52513 5.18528C5.1815 4.52891 6.07174 4.16016 7 4.16016C7.92826 4.16016 8.8185 4.52891 9.47487 5.18528C10.1313 5.84166 10.5 6.7319 10.5 7.66016C10.5 8.58841 10.1313 9.47865 9.47487 10.135C8.8185 10.7914 7.92826 11.1602 7 11.1602C6.07174 11.1602 5.1815 10.7914 4.52513 10.135C3.86875 9.47865 3.5 8.58841 3.5 7.66016Z" fill="#8b7965"/>
</svg>
