<svg width="90" height="60" viewBox="0 0 90 60" fill="none" xmlns="http://www.w3.org/2000/svg">
<rect width="90" height="60" fill="white"/>
<g clip-path="url(#clip0_1_2)">
<path d="M5.66238 44.6474C5.04306 44.6474 4.52153 44.1186 4.52153 43.5417V42.3397C4.52153 41.7468 5.04306 41.234 5.66238 41.234H18.0324C18.6354 41.234 19.1569 41.7468 19.1569 42.3397V43.5417C19.1569 44.1346 18.6354 44.6474 18.0324 44.6474H5.66238ZM7.58551 36.2179C6.9825 36.2179 6.47726 35.7211 6.47726 35.1122V16.8429C6.47726 16.25 7.01509 15.7372 7.63441 15.7372H8.87304C9.47606 15.7372 9.98129 16.25 9.98129 16.8429V32.8045H16.2233C16.8264 32.8045 17.3316 33.3173 17.3316 33.9102V35.1122C17.3316 35.7051 16.8264 36.2179 16.2233 36.2179H7.58551ZM31.0217 36.2179L29.5712 31.6026H23.6225L22.1557 36.2179H18.6354L24.8775 16.859C25.1056 16.1218 25.3827 15.7532 25.9857 15.7532H27.1918C27.7948 15.7532 28.0555 16.1218 28.3163 16.859L34.5095 36.2179H31.0217ZM26.5887 21.7468L24.6656 28.1891H28.463L26.5887 21.7468ZM39.2195 30.7692C39.2195 32.1474 40.3604 33.141 41.7783 33.141H42.039C43.3103 33.141 44.3044 32.3077 44.4837 31.1538C44.6467 30.1763 45.3801 30.1122 45.6897 30.1122H46.8306C47.4499 30.1122 47.9551 30.625 47.9551 31.2019C47.9551 33.8141 45.5268 36.5384 42.039 36.5384H41.7783C38.4698 36.5384 35.7481 34.0385 35.7481 30.7532V21.1859C35.7481 17.9006 38.4535 15.4167 41.7783 15.4167H42.039C45.5268 15.4167 47.9551 18.141 47.9551 20.7532C47.9551 21.3461 47.4499 21.8269 46.8306 21.8269H45.6897C45.3801 21.8269 44.6467 21.7788 44.4837 20.8013C44.3044 19.6474 43.3103 18.8141 42.039 18.8141H41.7783C40.3441 18.8141 39.2195 19.8237 39.2195 21.1859V30.7692ZM50.6932 16.859C50.6932 16.266 51.1984 15.7532 51.8014 15.7532H53.366C53.8712 15.7532 54.295 16.0897 54.6209 16.859L58.4509 25.3526L62.2646 16.859C62.6068 16.0897 63.0306 15.7532 63.5358 15.7532H65.1167C65.7034 15.7532 66.2249 16.266 66.2249 16.859V36.2179H62.7861V23.2532L58.4672 32.7885L54.132 23.2532V36.2179H50.7095V16.859H50.6932ZM69.3867 44.6474C68.7674 44.6474 68.2622 44.1186 68.2622 43.5417V42.3397C68.2622 41.7468 68.7674 41.234 69.3867 41.234H83.1909C83.794 41.234 84.2992 41.7468 84.2992 42.3397V43.5417C84.2992 44.1346 83.794 44.6474 83.1909 44.6474H69.3867ZM80.6485 36.2179L79.2143 31.6026H73.2493L71.7988 36.2179H68.2785L74.5042 16.859C74.7487 16.1218 75.0095 15.7532 75.6125 15.7532H76.8185C77.4215 15.7532 77.6823 16.1218 77.9431 16.859L84.1362 36.2179H80.6485ZM76.2155 21.7468L74.2923 28.1891H78.106L76.2155 21.7468Z" fill="#2B2011"/>
</g>
<defs>
<clipPath id="clip0_1_2">
<rect width="81" height="30" fill="white" transform="translate(4 15)"/>
</clipPath>
</defs>
</svg>
