<svg width="90" height="60" viewBox="0 0 90 60" fill="none" xmlns="http://www.w3.org/2000/svg">
<rect width="90" height="60" fill="white"/>
<path d="M64.2249 6.2625C58.6414 1.56562 51.3761 0 45.0226 0C38.669 0 31.3618 1.56562 25.7751 6.2625C19.5215 11.525 16 19.3719 16 30.0187C16 40.6656 19.5215 48.475 25.7751 53.7375C31.3618 58.4344 38.669 60 45.0226 60C51.3761 60 58.6414 58.4344 64.2249 53.7375C70.4785 48.475 74 40.6656 74 30.0187C74 19.3719 70.4785 11.525 64.2249 6.2625ZM63.0747 51.4781C57.8005 56.3906 51.2891 58.1969 45.0226 58.1969C38.756 58.1969 32.1995 56.3906 26.9253 51.4781C21.2291 46.1688 19.3185 38.4375 19.3185 30.0187C19.3185 21.6 21.2291 13.8344 26.9253 8.525C32.1995 3.6125 38.756 1.80625 45.0226 1.80625C51.2891 1.80625 57.8005 3.6125 63.0747 8.525C68.7741 13.8344 70.6815 21.6 70.6815 30.0187C70.6815 38.4375 68.7741 46.1688 63.0747 51.4781Z" fill="#2B2011"/>
<path d="M50.0777 12.8906H51.9753C55.0844 12.8906 56.5246 13.4875 57.3913 14.5437C58.1291 15.475 58.3772 16.5406 58.3772 17.7469C58.3804 18.95 58.1194 20.1062 57.3816 21.0344C56.5149 22.0906 55.1295 22.8437 52.2814 22.6969C51.985 22.6812 51.2923 22.6344 50.9379 22.6125C50.5738 22.5906 50.1872 22.5625 50.0712 22.5594V24.5219C50.1808 24.5281 50.7832 24.5812 50.9862 24.6C52.0269 24.6969 52.697 24.7719 53.9954 24.7719C56.2056 24.7719 58.5318 24.1062 60.001 22.3969C61.003 21.2344 61.5926 19.6156 61.5926 17.7938C61.5958 15.8844 60.9933 14.4875 59.9913 13.325C58.5608 11.6625 56.283 11.0906 53.3189 11.0906L50.8187 11.0781H50.068L50.0777 12.8906Z" fill="#2B2011"/>
<path d="M39.5776 27.7531C38.4532 29.6125 37.8346 31.9031 37.8668 34.2031C37.9119 37.3031 38.9687 39.9219 40.7761 41.9938C42.7093 44.2063 45.6992 45.8375 49.8779 45.8375C53.5541 45.8375 56.9757 44.6 58.5222 43.4594C58.1968 42.6469 57.9422 41.9875 57.9422 39.7938V33.5313H53.7345C54.134 34.2969 54.7043 35.05 54.7043 37.2031V42.9781C53.7603 43.6 51.7885 44.0438 49.9133 44.0438C46.8719 44.0438 44.5232 42.7438 43.0701 40.675C41.7073 38.7406 41.1789 36.6063 41.1789 34.2063C41.1789 32.7594 41.3529 31.425 41.6847 30.3313" fill="#2B2011"/>
<path d="M43.2183 27.2594C44.1365 26.0062 45.9537 24.9187 47.832 24.6344V22.675C44.7809 22.975 42.7447 24.2531 41.5494 25.2969" fill="#2B2011"/>
<path d="M41.6815 25.2969L34.8576 16.9219H30.3341C30.7497 17.7188 31.3232 18.5312 31.3232 20.5938V36.1C31.3232 38.1625 30.7272 38.9969 30.3567 39.7687H34.6482C34.2777 39.0219 33.6687 38.1656 33.6687 36.1031V20.6219L39.5776 27.7844L41.6847 30.3625L49.7233 40.1406L50.1035 40.1375V24.5219L50.1002 11.0781H48.7438H46.7012C47.1361 11.8375 47.6967 12.7031 47.6967 14.7656L47.7 22.675V24.6344V25.2875V32.7438L43.2796 27.2594" fill="#2B2011"/>
</svg>
