<?xml version="1.0" encoding="utf-8"?>
<!-- Generator: Adobe Illustrator 23.0.3, SVG Export Plug-In . SVG Version: 6.00 Build 0)  -->
<svg version="1.1" id="レイヤー_1" xmlns="http://www.w3.org/2000/svg" xmlns:xlink="http://www.w3.org/1999/xlink" x="0px"
	 y="0px" viewBox="0 0 60 60" style="enable-background:new 0 0 60 60;" xml:space="preserve">
<style type="text/css">
	.st0{fill:#212121;}
</style>
<path id="マスクグループ_5" transform="translate(3189 4040)" class="st0" d="M-3159-3986.6c-0.6,0-1.3-0.2-1.8-0.7l-18.6-18
	c-1.3-1.2-2.5-2.6-3.5-4.1c-2.1-2.8-3.3-6.1-3.4-9.6c0-4.5,1.3-8,3.9-10.5c2.6-2.5,6.2-3.8,10.8-3.8c2.7,0.1,5.3,0.9,7.5,2.4
	c1.8,1.1,3.5,2.4,5.1,3.9c1.5-1.5,3.3-2.8,5.1-3.9c2.2-1.5,4.8-2.3,7.5-2.4h0c4.6,0,8.2,1.3,10.8,3.8c2.6,2.5,3.9,6.1,3.9,10.5
	c-0.1,3.4-1.2,6.6-3.2,9.3c-1.1,1.6-2.3,3.1-3.7,4.4l-18.6,18C-3157.7-3986.9-3158.4-3986.6-3159-3986.6z M-3171.6-4032.7
	c-4.4,0-7.9,1.2-10.3,3.6c-2.5,2.4-3.7,5.8-3.7,10.1c0.1,3.4,1.3,6.6,3.3,9.2c1,1.5,2.1,2.8,3.4,4l18.6,18c0.8,0.7,2,0.7,2.7,0
	l18.6-18c1.4-1.3,2.6-2.8,3.6-4.3c1.9-2.6,3-5.7,3.1-9c0-4.3-1.3-7.6-3.7-10c-2.5-2.4-6-3.6-10.4-3.6c-2.6,0.1-5,0.9-7.2,2.3
	c-1.9,1.1-3.6,2.5-5.2,4l-0.2,0.2l-0.2-0.2c-1.6-1.5-3.3-2.9-5.2-4C-3166.6-4031.8-3169.1-4032.6-3171.6-4032.7z"/>
</svg>
