<svg version="1.2" xmlns="http://www.w3.org/2000/svg" viewBox="0 0 60 55" width="60" height="55">
	<title>h2-svg</title>
	<style>
		.s0 { fill: #212121 } 
	</style>
	<path id="マスクグループ_2" fill-rule="evenodd" class="s0" d="m21.4 52.8c-0.1 0-0.1 0-0.2 0-0.4 0-0.8-0.3-1.1-0.6l-6.1-9.2-9.2-6.1c-0.4-0.3-0.6-0.7-0.6-1.1-0.1-0.5 0.1-0.9 0.5-1.3l3.1-3.1c0.4-0.4 1-0.5 1.5-0.4l6.6 1.6 7.6-7.6-15.6-10.7c-0.4-0.3-0.7-0.7-0.7-1.2-0.1-0.5 0.1-1 0.5-1.3l4.2-4.2c0.4-0.4 1-0.5 1.5-0.4l21.5 6.5 8-8c1.8-1.9 4.1-3.4 6.7-4.2 2.4-0.7 4.2-0.5 5.4 0.7 1.2 1.2 1.4 3 0.7 5.4-0.8 2.5-2.3 4.8-4.2 6.7l-8 8 6.5 21.4c0.1 0.5 0 1.1-0.4 1.5l-4.2 4.2c-0.3 0.3-0.8 0.5-1.3 0.5-0.5-0.1-0.9-0.3-1.2-0.7l-10.7-15.6-7.6 7.6 1.6 6.6c0.1 0.5 0 1.1-0.4 1.5l-3.1 3.1c-0.5 0.3-0.9 0.4-1.3 0.4zm-12.6-21.2c-0.2 0-0.4 0.1-0.6 0.2l-3.1 3.1c-0.2 0.2-0.3 0.5-0.3 0.7 0 0.3 0.2 0.5 0.4 0.7l9.3 6.3 6.2 9.2c0.1 0.2 0.4 0.3 0.6 0.4 0.3 0 0.6-0.1 0.8-0.3l3.1-3.1c0.2-0.2 0.3-0.5 0.2-0.9l-1.7-6.9 8.4-8.4 11.2 16.2c0.2 0.2 0.4 0.4 0.7 0.4 0.3 0 0.6-0.1 0.7-0.3l4.2-4.2c0.2-0.2 0.3-0.5 0.2-0.9l-6.6-21.8 8.3-8.3c1.9-1.8 3.3-4 4.1-6.4q0.9-3.2-0.6-4.8-1.5-1.5-4.8-0.6c-2.4 0.8-4.6 2.2-6.4 4l-8.3 8.3-21.8-6.6c-0.3-0.1-0.6 0-0.9 0.2l-4.2 4.2c-0.2 0.2-0.3 0.5-0.3 0.7 0 0.3 0.2 0.6 0.4 0.7l16.2 11.2-8.4 8.4-6.9-1.7c0.1 0.3 0 0.3-0.1 0.3z"/>
</svg>