<?xml version="1.0" encoding="utf-8"?>
<!-- Generator: Adobe Illustrator 23.0.3, SVG Export Plug-In . SVG Version: 6.00 Build 0)  -->
<svg version="1.1" id="レイヤー_1" xmlns="http://www.w3.org/2000/svg" xmlns:xlink="http://www.w3.org/1999/xlink" x="0px"
	 y="0px" viewBox="0 0 60 60" style="enable-background:new 0 0 60 60;" xml:space="preserve">
<style type="text/css">
	.st0{fill:#212121;}
</style>
<path id="マスクグループ_2" transform="translate(-175 -1814)" class="st0" d="M196.4,1869.8c-0.1,0-0.1,0-0.2,0
	c-0.4,0-0.8-0.3-1.1-0.6l-6.1-9.2l-9.2-6.1c-0.4-0.3-0.6-0.7-0.6-1.1c-0.1-0.5,0.1-0.9,0.5-1.3l3.1-3.1c0.4-0.4,1-0.5,1.5-0.4
	l6.6,1.6l7.6-7.6l-15.6-10.7c-0.4-0.3-0.7-0.7-0.7-1.2c-0.1-0.5,0.1-1,0.5-1.3l4.2-4.2c0.4-0.4,1-0.5,1.5-0.4l21.5,6.5l8-8
	c1.8-1.9,4.1-3.4,6.7-4.2c2.4-0.7,4.2-0.5,5.4,0.7c1.2,1.2,1.4,3,0.7,5.4c-0.8,2.5-2.3,4.8-4.2,6.7l-8,8l6.5,21.4
	c0.1,0.5,0,1.1-0.4,1.5l-4.2,4.2c-0.3,0.3-0.8,0.5-1.3,0.5c-0.5-0.1-0.9-0.3-1.2-0.7l-10.7-15.6l-7.6,7.6l1.6,6.6
	c0.1,0.5,0,1.1-0.4,1.5l-3.1,3.1C197.2,1869.7,196.8,1869.8,196.4,1869.8z M183.8,1848.6c-0.2,0-0.4,0.1-0.6,0.2l-3.1,3.1
	c-0.2,0.2-0.3,0.5-0.3,0.7c0,0.3,0.2,0.5,0.4,0.7l9.3,6.3l6.2,9.2c0.1,0.2,0.4,0.3,0.6,0.4c0.3,0,0.6-0.1,0.8-0.3l3.1-3.1
	c0.2-0.2,0.3-0.5,0.2-0.9l-1.7-6.9l8.4-8.4l11.2,16.2c0.2,0.2,0.4,0.4,0.7,0.4c0.3,0,0.6-0.1,0.7-0.3l4.2-4.2
	c0.2-0.2,0.3-0.5,0.2-0.9l-6.6-21.8l8.3-8.3c1.9-1.8,3.3-4,4.1-6.4c0.6-2.1,0.4-3.7-0.6-4.8c-1-1-2.6-1.2-4.8-0.6
	c-2.4,0.8-4.6,2.2-6.4,4l0,0l-8.3,8.3l-21.8-6.6c-0.3-0.1-0.6,0-0.9,0.2l-4.2,4.2c-0.2,0.2-0.3,0.5-0.3,0.7c0,0.3,0.2,0.6,0.4,0.7
	l16.2,11.2l-8.4,8.4l-6.9-1.7C184,1848.6,183.9,1848.6,183.8,1848.6z"/>
</svg>
