<svg version="1.2" xmlns="http://www.w3.org/2000/svg" viewBox="0 0 60 48" width="60" height="48">
	<title>h3-svg</title>
	<style>
		.s0 { fill: #212121 } 
	</style>
	<path id="マスクグループ_4" fill-rule="evenodd" class="s0" d="m27.2 45.7v-17.9h-0.2c-4.5-0.4-10.7-1.7-15.6-5.7-8.4-7-9.7-19.6-9.7-19.7v-0.2h0.2c0.1 0 12.8-1.2 21.2 5.8 2.9 2.5 5.3 5.7 6.8 9.2 1.5-3.5 3.9-6.7 6.8-9.2 8.4-7 21.1-5.8 21.2-5.8h0.2v0.2c0 0.1-1.3 12.7-9.7 19.7-4.8 4-10.9 5.3-15.3 5.7v18zm0.6-18.4v17.9h5v-18h0.2c4.3-0.4 10.4-1.7 15.2-5.6 7.7-6.3 9.3-17.4 9.5-19.2-1.7-0.1-13-0.6-20.6 5.7-3 2.6-5.4 5.9-6.9 9.6l-0.2 0.5-0.2-0.5c-1.5-3.7-3.9-7-6.9-9.6-7.7-6.3-18.9-5.8-20.6-5.7 0.2 1.7 1.8 12.8 9.5 19.2 4.9 4 11.1 5.3 15.5 5.7z"/>
</svg>