<?xml version="1.0" encoding="utf-8"?>
<!-- Generator: Adobe Illustrator 23.0.3, SVG Export Plug-In . SVG Version: 6.00 Build 0)  -->
<svg version="1.1" id="レイヤー_1" xmlns="http://www.w3.org/2000/svg" xmlns:xlink="http://www.w3.org/1999/xlink" x="0px"
	 y="0px" viewBox="0 0 60 60" style="enable-background:new 0 0 60 60;" xml:space="preserve">
<style type="text/css">
	.st0{fill:#212121;}
</style>
<path id="マスクグループ_4" transform="translate(3264 4041)" class="st0" d="M-3236.8-3986.3v-17.9l-0.2,0v0
	c-4.5-0.4-10.7-1.7-15.6-5.7c-8.4-7-9.7-19.6-9.7-19.7l0-0.2l0.2,0c0.1,0,12.8-1.2,21.2,5.8c2.9,2.5,5.3,5.7,6.8,9.2
	c1.5-3.5,3.9-6.7,6.8-9.2c8.4-7,21.1-5.8,21.2-5.8l0.2,0l0,0.2c0,0.1-1.3,12.7-9.7,19.7c-4.8,4-10.9,5.3-15.3,5.7v18L-3236.8-3986.3
	z M-3236.4-4004.7l0.2,0v17.9l5,0v-18l0.2,0c4.3-0.4,10.4-1.7,15.2-5.6c7.7-6.3,9.3-17.4,9.5-19.2c-1.7-0.1-13-0.6-20.6,5.7
	c-3,2.6-5.4,5.9-6.9,9.6l-0.2,0.5l-0.2-0.5c-1.5-3.7-3.9-7-6.9-9.6c-7.7-6.3-18.9-5.8-20.6-5.7c0.2,1.7,1.8,12.8,9.5,19.2
	c4.9,4,11.1,5.3,15.5,5.7L-3236.4-4004.7L-3236.4-4004.7z"/>
</svg>
