<svg version="1.2" xmlns="http://www.w3.org/2000/svg" viewBox="0 0 60 45" width="60" height="45">
	<title>h4-svg</title>
	<style>
		.s0 { fill: #212121 } 
	</style>
	<path id="マスクグループ_3" fill-rule="evenodd" class="s0" d="m54.3 41.4h-48.2c-1.9 0-3.5-1.6-3.5-3.5v-32.1c0-1.9 1.6-3.5 3.5-3.5h48.2c1.9 0 3.5 1.6 3.5 3.5v32.1c0 2-1.6 3.5-3.5 3.5zm-48.2-38.5c-1.6 0-2.9 1.3-2.9 2.9v32.1c0 1.6 1.3 2.9 2.9 2.9h48.2c1.6 0 2.9-1.3 2.9-2.9v-32.1c0-1.6-1.3-2.9-2.9-2.9zm24.1 30.9c-6.6 0-11.9-5.3-11.9-11.9 0-6.6 5.3-11.9 11.9-11.9 6.6 0 11.9 5.3 11.9 11.9 0 6.6-5.3 11.9-11.9 11.9zm0-23.3c-6.3 0-11.4 5.1-11.4 11.4 0 6.3 5.1 11.4 11.4 11.4 6.3 0 11.4-5.1 11.4-11.4 0-6.3-5.1-11.4-11.4-11.4z"/>
</svg>