<?xml version="1.0" encoding="utf-8"?>
<!-- Generator: Adobe Illustrator 23.0.3, SVG Export Plug-In . SVG Version: 6.00 Build 0)  -->
<svg version="1.1" id="レイヤー_1" xmlns="http://www.w3.org/2000/svg" xmlns:xlink="http://www.w3.org/1999/xlink" x="0px"
	 y="0px" viewBox="0 0 60 60" style="enable-background:new 0 0 60 60;" xml:space="preserve">
<style type="text/css">
	.st0{fill:#212121;}
</style>
<path id="マスクグループ_3" transform="translate(3269 4056)" class="st0" d="M-3214.7-4006.6h-48.2c-1.9,0-3.5-1.6-3.5-3.5
	v-32.1c0-1.9,1.6-3.5,3.5-3.5h48.2c1.9,0,3.5,1.6,3.5,3.5v32.1C-3211.2-4008.1-3212.8-4006.6-3214.7-4006.6z M-3262.9-4045.1
	c-1.6,0-2.9,1.3-2.9,2.9v32.1c0,1.6,1.3,2.9,2.9,2.9h48.2c1.6,0,2.9-1.3,2.9-2.9v-32.1c0-1.6-1.3-2.9-2.9-2.9H-3262.9z
	 M-3238.8-4014.2c-6.6,0-11.9-5.3-11.9-11.9c0-6.6,5.3-11.9,11.9-11.9s11.9,5.3,11.9,11.9
	C-3226.9-4019.5-3232.2-4014.2-3238.8-4014.2z M-3238.8-4037.5c-6.3,0-11.4,5.1-11.4,11.4c0,6.3,5.1,11.4,11.4,11.4
	s11.4-5.1,11.4-11.4C-3227.4-4032.4-3232.5-4037.5-3238.8-4037.5z"/>
</svg>
