<?xml version="1.0" encoding="UTF-8"?>
<svg version="1.1" viewBox="0 0 2048 1024" width="1280" height="1280" xmlns="http://www.w3.org/2000/svg">
<path transform="translate(1683,380)" d="m0 0h18l3 2 1 3v100h190v-40l4-8 7-5 3-1h22v156h-21l-7-3-5-5-3-6v-40h-190v101l-3 4h-20l-3-3v-48h-802l-6-3-5-6-1-2-1-18-2-6-5-2-10-1v19l-1 1h-8l-1-1-1-9-5-5-4-2-45-1-8-4-5-8v-3h-16l-93-2-18-1-10-4-8-7-3-6v-2h-524v-1l50-9h474l2-6 6-7 10-5 10-2 67-1 35-1h18l1-6 4-5 8-4 44-1 8-4 2-3 1-9 1-1h8l1 1v19l12-2 4-4 1-3 1-18 4-6 5-4 2-1h803v-48z" fill="#C79BCA"/>
<path transform="translate(1683,380)" d="m0 0h18l3 2 1 3v100h190v-40l4-8 7-5 3-1h22v156h-21l-7-3-5-5-3-6v-40h-190v101l-3 4h-20l-3-3v-48h-9l-1-1v-155h10v-48z" fill="#6B6B6A"/>
<path transform="translate(838,449)" d="m0 0h8l1 1v118l-1 1h-8l-1-1-1-9-5-5-4-2-45-1-8-4-5-8v-3h-16l-93-2-18-1-10-4-8-7-3-6v-2h-524v-1l50-9h474l2-6 6-7 10-5 10-2 67-1 35-1h18l1-6 4-5 8-4 44-1 8-4 2-3 1-9z" fill="#259FED"/>
<path transform="translate(621,503)" d="m0 0h147l1 2-1 30h-55l-53-1-18-1-10-4-8-7-3-6v-2h-524v-1l50-9z" fill="#324C85"/>
<path transform="translate(1683,380)" d="m0 0h18l3 2 1 3v249l-3 4h-20l-3-3v-48h-9l-1-1v-155h10v-48z" fill="#949495"/>
<path transform="translate(1909,431)" d="m0 0h22v156h-21l-7-3-5-5-3-6-1-40v-48l1-40 4-8 7-5z" fill="#939494"/>
<path transform="translate(155,507)" d="m0 0h451l14 1v5l-18 1h-505v-1l29-5z" fill="#343333"/>
<path transform="translate(1921,432)" d="m0 0h10v155h-21l-7-3-6-6v-5l9 3h10l4-4 2-7v-125l-2-4z" fill="#6B6B6A"/>
<path transform="translate(1669,431)" d="m0 0h10v156h-9l-1-1z" fill="#354A7A"/>
<path transform="translate(1466,478)" d="m0 0h11l1 2v107h-12z" fill="#354C82"/>
<path transform="translate(1196,478)" d="m0 0h11l1 42v67h-12l-1-1z" fill="#364C82"/>
<path transform="translate(1331,478)" d="m0 0h11l1 2v107h-12z" fill="#364C82"/>
<path transform="translate(1061,478)" d="m0 0h11v109h-12v-49z" fill="#344C83"/>
<path transform="translate(147,504)" d="m0 0h473v3l-468-1-2 1h-13v-1z" fill="#6B6B6A"/>
<path transform="translate(152,505)" d="m0 0 454 1v1l-475 1v-1l19-1z" fill="#334B83"/>
<path transform="translate(1415,514)" d="m0 0h5v73h-5z" fill="#334B83"/>
<path transform="translate(1388,514)" d="m0 0h5v73h-5z" fill="#334B83"/>
<path transform="translate(1442,514)" d="m0 0h5v73h-5z" fill="#334B83"/>
<path transform="translate(1361,514)" d="m0 0h5v73h-5z" fill="#334B84"/>
<path transform="translate(1307,514)" d="m0 0h5v73h-5z" fill="#334B83"/>
<path transform="translate(1280,514)" d="m0 0h5v73h-5z" fill="#334B83"/>
<path transform="translate(1253,514)" d="m0 0h5v73h-5z" fill="#334B84"/>
<path transform="translate(1226,514)" d="m0 0h5v73h-5z" fill="#334B84"/>
<path transform="translate(1172,514)" d="m0 0h5v73h-5z" fill="#334B84"/>
<path transform="translate(1145,514)" d="m0 0h5v73h-5z" fill="#334B83"/>
<path transform="translate(1118,514)" d="m0 0h5v73h-5z" fill="#334B84"/>
<path transform="translate(1091,514)" d="m0 0h5v73h-5z" fill="#334B83"/>
<path transform="translate(1037,514)" d="m0 0h5v73h-5z" fill="#334B83"/>
<path transform="translate(1010,514)" d="m0 0h5v73h-5z" fill="#334B83"/>
<path transform="translate(983,514)" d="m0 0h5v73h-5z" fill="#334B83"/>
<path transform="translate(956,514)" d="m0 0 5 1v72h-5z" fill="#334B83"/>
<path transform="translate(109,511)" d="m0 0 4 1 15 1v1h-31v-1z" fill="#3D4863"/>
</svg>
