<svg width="18" height="194" viewBox="0 0 18 194" fill="none" xmlns="http://www.w3.org/2000/svg">
<path d="M9 18.4897L1.20577 4.98974L16.7942 4.98975L9 18.4897Z" fill="#FFFAE5"/>
<path d="M9 43.4897L1.20577 29.9897L16.7942 29.9897L9 43.4897Z" fill="#FFF0B4"/>
<path d="M9 68.4897L1.20577 54.9897L16.7942 54.9897L9 68.4897Z" fill="#FFE370"/>
<path d="M9 93.4897L1.20577 79.9897L16.7942 79.9897L9 93.4897Z" fill="#FFCD00"/>
<path d="M9 118.49L1.20577 104.99L16.7942 104.99L9 118.49Z" fill="#FFA800"/>
<path d="M9 143.49L1.20577 129.99L16.7942 129.99L9 143.49Z" fill="#F5671F"/>
<path d="M9 168.49L1.20577 154.99L16.7942 154.99L9 168.49Z" fill="#DA5205"/>
<path d="M9 193.49L1.20577 179.99L16.7942 179.99L9 193.49Z" fill="#B92C00"/>
</svg>
