<svg width="88" height="151" viewBox="0 0 88 151" fill="none" xmlns="http://www.w3.org/2000/svg">
<path d="M23.8717 108.472L22.0674 117.187C24.7795 120.293 27.7778 121.153 30.4418 118.718L33.8415 111.061C30.4598 111.309 26.5659 110.132 23.8717 108.472Z" fill="white"/>
<path d="M24.5221 93.2002L21.2903 106.824C25.0325 109.506 30.0715 111.884 36.4818 110.798L38.8115 105.243C33.5687 101.744 28.7414 97.7055 24.5221 93.2002Z" fill="#8885D2"/>
<path d="M40.3822 22.045C40.3822 22.045 50.6708 38.5045 77.6976 34.6611C79.9094 38.2268 75.7566 39.2184 75.7566 39.2184C51.1058 41.9616 38.9277 26.261 38.9277 26.261C38.9277 26.261 36.319 23.033 40.3822 22.045Z" fill="white"/>
<path d="M30.5012 50.1594C27.3225 53.176 25.8156 58.2395 30.1512 64.3797C25.5391 65.7744 19.4085 71.5486 26.7914 81.392C21.9476 82.1341 20.0216 88.257 23.6796 92.2953C38.2544 108.386 60.5608 118.742 82.0156 120.186C86.7506 119.082 105.206 111.178 106.116 79.4995C106.135 76.3632 95.6627 75.2645 93.2577 72.9732C86.9671 63.2938 87.5541 54.1572 71.0334 43.9613C70.9916 43.994 70.9494 44.0266 70.9073 44.0589C69.7559 45.1802 68.2598 45.9475 66.8147 46.3768C66.1402 46.6539 65.4495 46.8948 64.7463 47.0982L59.368 57.7159C52.3627 55.0642 45.3404 52.2786 38.0407 47.1556C35.6352 46.9904 32.6766 48.0957 30.5012 50.1594Z" fill="#FFCD00"/>
<path d="M23.7876 92.6961C23.719 92.7878 23.6699 92.8917 23.6434 93.0019L20.4117 106.625C20.3728 106.788 20.3844 106.959 20.4452 107.117C20.506 107.275 20.6133 107.413 20.7541 107.514C21.4129 107.986 22.1187 108.45 22.8638 108.891L21.1827 117.011C21.1564 117.138 21.1603 117.269 21.194 117.395C21.2278 117.52 21.2905 117.637 21.3776 117.737C22.8131 119.381 24.3779 120.514 26.0854 120.873C27.7928 121.232 29.5761 120.707 31.0665 119.345C31.1541 119.264 31.2238 119.168 31.2711 119.061L34.4537 111.894C35.1676 111.853 35.8977 111.775 36.6461 111.648C36.7957 111.622 36.9358 111.561 37.0534 111.469C37.171 111.378 37.2623 111.259 37.3186 111.124L39.6482 105.569C39.7366 105.357 39.7333 105.12 39.639 104.909C39.5447 104.698 39.3673 104.53 39.1455 104.444C38.9236 104.357 38.6756 104.359 38.4561 104.447C38.2366 104.536 38.0634 104.704 37.9747 104.916L35.8558 109.97C30.2273 110.774 25.7825 108.832 22.3082 106.435L25.4005 93.3979C25.4532 93.1752 25.4113 92.9408 25.2839 92.7463C25.1565 92.5518 24.9542 92.4129 24.7213 92.3603C24.5477 92.3216 24.3665 92.3328 24.2004 92.3926C24.0343 92.4524 23.8904 92.5578 23.7876 92.6961ZM24.5207 109.787C26.831 110.926 29.4871 111.769 32.4842 111.908L29.7094 118.156C28.5806 119.146 27.5585 119.418 26.4587 119.187C25.4097 118.966 24.228 118.165 23.0481 116.901L24.5207 109.787Z" fill="#474882"/>
<path d="M41.8482 38.7166L38.0399 47.1552C43.0598 52.4096 59.3671 57.7153 59.3671 57.7153L64.7454 47.0976C61.2976 48.1162 57.6167 48.2104 54.1008 47.3696C50.585 46.5289 47.3679 44.7853 44.7978 42.3277C43.6675 41.2407 42.6772 40.0283 41.8482 38.7166Z" fill="#8885D2"/>
<path d="M37.7066 22.618C37.2249 23.2688 37.1446 24.0225 37.2402 24.6393C37.4315 25.873 38.2188 26.7881 38.2188 26.7881C38.2558 26.8328 50.8287 42.8646 75.8677 40.0783C75.9074 40.0734 75.9467 40.0661 75.9852 40.0562C75.9852 40.0562 77.2043 39.7927 78.182 38.9025C78.6709 38.4574 79.1145 37.8129 79.2228 36.9916C79.331 36.1703 79.0984 35.2363 78.4721 34.2264C78.3799 34.0776 78.2436 33.9582 78.0806 33.8837C77.9176 33.8092 77.7354 33.7829 77.5576 33.8082C64.2448 35.7015 55.1763 32.6029 49.3884 29.0678C43.6004 25.5326 41.1554 21.6045 41.1554 21.6045C41.0545 21.4436 40.902 21.3179 40.721 21.2465C40.54 21.1751 40.3402 21.1618 40.1516 21.2084C39.0008 21.4882 38.1882 21.9672 37.7066 22.618ZM39.1788 23.6242C39.2923 23.4692 39.7475 23.2956 40.1319 23.128C40.7232 23.9907 43.0632 27.2487 48.4257 30.524C54.4143 34.1817 63.7918 37.2657 77.0619 35.5592C77.2622 36.0221 77.4691 36.4942 77.4342 36.7593C77.3857 37.1268 77.2029 37.401 76.9299 37.6494C76.4037 38.1302 75.6333 38.3404 75.5781 38.356C51.4063 41.0089 39.6493 25.7531 39.6493 25.7531C39.6462 25.7469 39.643 25.7407 39.6397 25.7346C39.6397 25.7346 39.1243 25.03 39.027 24.4029C38.9784 24.0894 39.0069 23.8566 39.1788 23.6242Z" fill="#474882"/>
<path d="M41.0199 38.3679L37.2116 46.8066C37.1647 46.9104 37.1399 47.0222 37.1383 47.1356C37.1367 47.2489 37.1583 47.3616 37.2021 47.4673C37.2459 47.573 37.311 47.6695 37.3936 47.7514C37.4761 47.8333 37.5746 47.8991 37.6833 47.9447C37.9026 48.0367 38.1504 48.0419 38.3722 47.9592C38.594 47.8765 38.7718 47.7126 38.8665 47.5035L42.6761 39.0662C42.7232 38.9624 42.7483 38.8506 42.7501 38.7371C42.7519 38.6237 42.7303 38.5109 42.6866 38.4051C42.6429 38.2993 42.578 38.2025 42.4954 38.1205C42.4129 38.0384 42.3145 37.9726 42.2057 37.9268C42.0969 37.8809 41.9799 37.8559 41.8615 37.8532C41.743 37.8505 41.6254 37.8703 41.5153 37.9113C41.4052 37.9522 41.3047 38.0136 41.2197 38.092C41.1347 38.1704 41.0668 38.2641 41.0199 38.3679Z" fill="#474882"/>
<path d="M29.8605 49.5464C29.6922 49.7076 29.598 49.9269 29.599 50.1558C29.6 50.3847 29.696 50.6046 29.8657 50.7671C30.035 50.9293 30.2641 51.0212 30.5025 51.0226C30.741 51.024 30.9694 50.9348 31.1379 50.7746C33.0926 48.9211 35.7702 47.9604 37.8194 48.0463C45.0683 53.0741 52.0535 55.8668 58.9354 58.4732C58.9778 58.4958 59.0222 58.5152 59.0678 58.531C64.173 60.2926 68.279 59.6361 68.279 59.6361C68.3958 59.6178 68.5077 59.5775 68.6079 59.5176C68.7082 59.4577 68.795 59.3794 68.8633 59.2871C68.9316 59.1948 68.98 59.0904 69.0059 58.9797C69.0318 58.8691 69.0346 58.7544 69.0141 58.6424C68.9939 58.5305 68.9509 58.4233 68.8875 58.327C68.8242 58.2307 68.7417 58.1472 68.6449 58.0812C68.5481 58.0151 68.439 57.9679 68.3235 57.9422C68.2079 57.9164 68.0884 57.9127 67.9717 57.9312C67.9717 57.9312 64.8371 58.4441 60.6268 57.2126L65.5559 47.4803C65.6599 47.2751 65.6743 47.0383 65.5958 46.8216C65.5174 46.6048 65.3527 46.426 65.1377 46.3245C64.9227 46.2232 64.6751 46.2076 64.4495 46.2809C64.2239 46.3542 64.0385 46.5105 63.9343 46.7155L58.9287 56.5978C52.1919 54.0361 45.5078 51.3303 38.568 46.46C38.4301 46.3631 38.2668 46.3055 38.0968 46.2936C35.352 46.105 32.2121 47.3157 29.863 49.544C29.8638 49.5433 29.8622 49.5448 29.863 49.544L29.8605 49.5464ZM29.4883 63.7929C29.3276 63.9599 29.2429 64.1814 29.2528 64.4093C29.2627 64.6371 29.3662 64.853 29.5408 65.0093C29.5408 65.0093 36.4806 71.1571 46.7976 73.6227C47.0299 73.6771 47.2744 73.6412 47.4776 73.5229C47.6808 73.4046 47.8261 73.2135 47.8815 72.9916C47.9095 72.8816 47.9144 72.7673 47.8962 72.6551C47.878 72.5429 47.837 72.4351 47.7754 72.3378C47.7139 72.2404 47.6329 72.1555 47.5374 72.0879C47.4418 72.0202 47.3335 71.9711 47.2184 71.9434C37.4021 69.5975 30.7588 63.7443 30.7588 63.7443C30.5819 63.5897 30.3489 63.508 30.1108 63.5171C29.8726 63.5263 29.6489 63.6254 29.4883 63.7929ZM21.4174 84.984C21.3041 85.0888 21.2218 85.2204 21.1788 85.3658C20.4688 87.7655 20.9686 90.6161 22.999 92.8577C23.0038 92.8624 23.0086 92.867 23.0135 92.8716C29.101 99.2991 35.3156 104.325 42.4126 108.542C42.5135 108.602 42.6255 108.643 42.7424 108.661C42.8594 108.68 42.9789 108.677 43.0941 108.651C43.2092 108.625 43.3177 108.578 43.4135 108.513C43.5093 108.447 43.5904 108.363 43.6522 108.267C43.7141 108.171 43.7557 108.064 43.7742 107.952C43.7928 107.84 43.788 107.725 43.7604 107.615C43.7327 107.504 43.6827 107.4 43.6131 107.308C43.5434 107.216 43.4556 107.137 43.3546 107.077C36.4092 102.95 30.3435 98.0498 24.3579 91.7325C22.7316 89.936 22.3651 87.7068 22.9143 85.8504C22.9466 85.7415 22.9561 85.6275 22.9423 85.5148C22.9284 85.4021 22.8916 85.293 22.8338 85.1936C22.7761 85.0942 22.6985 85.0064 22.6056 84.9354C22.5126 84.8644 22.4062 84.8116 22.2923 84.7798C22.14 84.7373 21.9791 84.7338 21.8256 84.7698C21.6721 84.8058 21.5308 84.8791 21.4174 84.984ZM26.1094 80.8206C25.9534 80.9921 25.8751 81.2165 25.892 81.4445C25.9089 81.6725 26.0195 81.8855 26.1994 82.037C26.1994 82.037 32.5991 87.441 40.6376 90.5439C40.7478 90.5864 40.8654 90.6076 40.9838 90.6065C41.1022 90.6055 41.2191 90.5821 41.3277 90.5377C41.4363 90.4933 41.5344 90.4287 41.6167 90.3477C41.6989 90.2668 41.7635 90.171 41.8068 90.0658C41.8942 89.8536 41.8897 89.6163 41.7946 89.4059C41.6994 89.1954 41.5212 89.0289 41.2991 88.9431C33.6307 85.983 27.3838 80.7494 27.3838 80.7494C27.2946 80.6737 27.1909 80.6153 27.0785 80.5779C26.9661 80.5405 26.8474 80.5248 26.729 80.5314C26.6106 80.5381 26.4949 80.5669 26.3886 80.6165C26.2822 80.6662 26.1873 80.7355 26.1094 80.8206Z" fill="#F5671F"/>
<path d="M44.6809 15.4601C42.7233 17.3412 41.2045 19.5994 40.2236 22.0876C40.277 22.0735 40.3271 22.0589 40.3829 22.0453C40.3829 22.0453 50.6716 38.5051 77.6984 34.6617C77.7038 34.6704 77.7082 34.6754 77.7131 34.6847C78.778 31.3818 78.877 27.8553 77.9993 24.4869C77.1217 21.1184 75.3007 18.0364 72.7337 15.5741C68.9984 11.9963 63.9445 9.97429 58.6838 9.953C53.423 9.9317 48.3854 11.9124 44.6809 15.4601ZM39.0887 26.4571C38.7149 29.3343 39.0352 32.2609 40.025 35.012C41.0147 37.7632 42.6474 40.2659 44.7981 42.328C48.5338 45.9055 53.5881 47.927 58.8488 47.9478C64.1096 47.9687 69.146 45.9871 72.8502 42.4391C73.8599 41.4703 74.7559 40.3987 75.5225 39.2428C52.6423 41.6883 40.5788 28.2397 39.0887 26.4571Z" fill="#474882"/>
<path d="M44.0397 14.8487C41.9922 16.8144 40.4064 19.1757 39.381 21.777C39.3345 21.9597 39.3519 22.1524 39.4304 22.3258C39.5089 22.4991 39.6442 22.6436 39.8158 22.7372C40.0666 23.123 42.6081 26.9693 48.4251 30.5222C54.5253 34.2481 64.0897 37.4449 77.757 35.5206C77.9383 35.5153 78.1133 35.4576 78.259 35.3552C78.4047 35.2529 78.5144 35.1106 78.5737 34.9469C80.8423 27.9108 78.8363 20.2114 73.3678 14.9662C65.2436 7.18454 52.097 7.13254 44.0397 14.8487C44.0402 14.8483 44.0393 14.8491 44.0397 14.8487ZM45.3211 16.0734C45.3205 16.074 45.3215 16.073 45.3211 16.0734C52.6927 9.01569 64.6662 9.06315 72.0983 16.1818C76.9446 20.8325 78.7365 27.5757 76.9493 33.8446C63.9942 35.5454 55.0784 32.5446 49.3861 29.0678C43.8937 25.7131 41.5933 22.2225 41.3544 21.8527C42.2905 19.7034 43.6039 17.7237 45.3211 16.0734ZM38.5307 25.7757C38.3446 25.9148 38.2239 26.1191 38.1946 26.3442C37.4027 32.4394 39.6076 38.5677 44.1637 42.9361C52.2887 50.717 65.4338 50.7693 73.4904 43.0524C74.5462 42.0399 75.4839 40.9184 76.2852 39.7099C76.376 39.5727 76.4241 39.4133 76.4239 39.2502C76.4238 39.0871 76.3756 38.9269 76.2846 38.7883C76.1936 38.6497 76.0637 38.5383 75.9099 38.467C75.7561 38.3957 75.5848 38.3675 75.4157 38.3855C52.9311 40.7887 41.179 27.5815 39.791 25.9213C39.642 25.743 39.4259 25.6278 39.1899 25.6005C38.9539 25.5732 38.7171 25.6362 38.5307 25.7757ZM39.9645 28.564C43.5527 32.2676 54.4689 41.4422 73.6059 40.157C73.1458 40.719 72.7378 41.3203 72.2103 41.8265C64.8397 48.8863 52.8663 48.8388 45.4331 41.7203C41.771 38.2094 39.898 33.448 39.9645 28.564Z" fill="#474882"/>
</svg>
