<svg width="33" height="30" viewBox="0 0 33 30" fill="none" xmlns="http://www.w3.org/2000/svg">
<g clip-path="url(#clip0_2056_7194)">
<path d="M18.7156 23.7955C20.9111 22.4433 27.164 18.5889 29.2676 17.2931L33 24.4492L29.4842 25.8073C27.4948 26.5753 20.4972 29.2798 18.634 30L16.204 25.3416L18.7141 23.7955L18.7156 23.7955Z" fill="#FFCB00"/>
<path d="M10.4999 16.5194C12.0264 14.4064 16.7171 7.90682 18.1665 5.89795L24.4268 11.0192L21.7609 13.6312C20.2344 15.1266 14.3495 20.8914 12.9357 22.2755L8.79237 18.8855L10.4999 16.5194Z" fill="#FFCB00"/>
<path d="M0.597991 11.9202C1.12166 9.43981 2.61107 2.37478 3.11249 -3.44262e-07L10.9883 2.34151L9.55376 5.75327C8.74229 7.68404 5.8866 14.4728 5.12705 16.2807L0.000150036 14.7563L0.597991 11.9216L0.597991 11.9202Z" fill="#FFCB00"/>
</g>
<defs>
<clipPath id="clip0_2056_7194">
<rect width="30" height="33" fill="white" transform="translate(33) rotate(90)"/>
</clipPath>
</defs>
</svg>
