<svg width="90" height="46" viewBox="0 0 90 46" fill="none" xmlns="http://www.w3.org/2000/svg">
<g clip-path="url(#clip0_2398_7955)">
<path d="M40.5903 13.8293C36.6316 2.86103 24.4685 -2.77316 13.525 1.35379C3.13917 5.27195 -2.41735 16.8274 1.01309 27.3878C3.34787 34.5749 9.15222 39.586 15.9218 41.2563C17.4968 41.6446 18.7881 42.7701 19.3392 44.3002L19.9457 45.9836L37.6457 39.5925L37.0392 37.9058C36.4946 36.3954 36.7424 34.712 37.6979 33.42C41.7348 27.9783 43.062 20.6836 40.5903 13.8293Z" fill="#FFCD00"/>
<path d="M36.4454 21.5317C36.2791 18.8696 35.4965 16.1683 34.0878 14.2043C33.253 13.0397 31.8443 12.0577 30.3411 12.5601C28.0682 13.3692 28.0487 16.1031 28.5476 17.9822C29.1117 20.1582 30.3084 21.9297 31.8834 23.2412C31.6747 25.7076 30.5758 27.7401 27.8302 27.2018C26.8617 26.9767 25.7758 26.5852 24.7617 26.0371C26.7508 22.928 27.1063 18.1355 22.978 16.6414C19.2639 15.3397 15.3541 17.992 15.9704 22.0863C16.1367 23.4826 16.6128 24.7517 17.3106 25.8805C16.453 26.334 15.5432 26.6831 14.6824 26.9277C10.9878 27.988 10.1008 24.4777 10.1921 21.5024C10.1856 19.8255 10.5215 17.9985 11.1671 16.5696L8.3791 14.2598C7.97149 14.7263 7.60953 15.2646 7.31606 15.7997C5.11497 20.0277 4.48562 26.8527 8.38236 30.3598C10.4008 32.2259 13.365 32.6696 15.928 31.9747C17.7965 31.4886 19.5606 30.7317 21.1258 29.6682C22.9063 30.8198 24.9508 31.6126 26.953 32.0041C31.1237 32.8262 34.9943 30.3239 36.0443 26.2622C36.1095 26.0077 36.1682 25.7435 36.2204 25.476C37.4726 25.8185 38.79 25.9686 40.1139 25.9099V22.2886C38.803 22.2527 37.5476 22.008 36.4487 21.535L36.4454 21.5317ZM21.0345 21.1794C21.0345 21.1794 21.0345 21.1794 21.0345 21.1826C21.0345 21.1729 21.0313 21.1729 21.0345 21.1794ZM32.4965 15.8649C32.4965 15.8649 32.4965 15.8714 32.4932 15.8714C32.4932 15.8616 32.4965 15.8519 32.4998 15.8453C32.5063 15.8258 32.5095 15.8323 32.4998 15.8649H32.4965Z" fill="white"/>
<path d="M18.0246 19.8843C17.8616 19.8843 17.7344 19.9919 17.7442 20.1224C17.829 21.0946 18.3311 24.6996 21.0246 24.6996C23.7181 24.6996 24.0833 21.0783 24.1322 20.1159C24.1387 19.9887 24.0116 19.8843 23.8518 19.8843H18.0246Z" fill="#D34F16"/>
<path d="M21.0149 20.9805C19.903 20.9805 18.879 21.2871 18.0508 21.8026C18.4323 23.1434 19.254 24.6996 21.0247 24.6996C22.7953 24.6996 23.5747 23.1076 23.8975 21.7537C23.0856 21.2676 22.091 20.9805 21.0149 20.9805Z" fill="#F5671F"/>
<path d="M39.0703 14.4458H43.7562V31.3516H39.0703V14.4458Z" fill="black"/>
<path d="M46.1694 28.5557L54.4423 18.3085V18.1878H46.4564V14.4458H60.0868V17.4929L52.3194 27.4857V27.6064H60.3738V31.3484H46.1727V28.5525L46.1694 28.5557Z" fill="black"/>
<path d="M61.5638 22.9738C61.5638 17.7572 64.7855 14.224 69.7584 14.224C74.2258 14.224 77.7018 17.0623 77.7018 22.8074V24.0961H66.1942V24.1058C66.1942 26.6277 67.6779 28.1773 70.0225 28.1773C71.5845 28.1773 72.7942 27.5053 73.2671 26.2166L77.6008 26.5037C76.9421 29.6422 74.1247 31.6779 69.9442 31.6779C64.7399 31.6779 61.5605 28.3307 61.5605 22.9705L61.5638 22.9738ZM73.2899 21.1925C73.2801 19.1796 71.8714 17.7246 69.8366 17.7246C67.8019 17.7246 66.2953 19.2644 66.1942 21.1925H73.2899Z" fill="black"/>
<path d="M79.5215 14.4459H84.0639V17.3951H84.24C84.8563 15.3039 86.4084 14.2045 88.2997 14.2045C88.7726 14.2045 89.3563 14.2697 89.7737 14.3709V18.5304C89.3334 18.3869 88.4432 18.276 87.7943 18.276C85.7269 18.276 84.2074 19.7049 84.2074 21.7863V31.3517H79.5215V14.4459Z" fill="black"/>
</g>
<defs>
<clipPath id="clip0_2398_7955">
<rect width="90" height="46" fill="white"/>
</clipPath>
</defs>
</svg>
