<svg width="188" height="13" viewBox="0 0 188 13" fill="none" xmlns="http://www.w3.org/2000/svg">
<mask id="mask0_696_733" style="mask-type:luminance" maskUnits="userSpaceOnUse" x="0" y="0" width="188" height="13">
<path d="M0 0.894531H188V13.0005H0V0.894531Z" fill="white"/>
</mask>
<g mask="url(#mask0_696_733)">
<path d="M186.78 5.38136C180.22 2.2598 171.513 2.74763 164.356 2.35839C156.616 1.93715 148.872 1.61065 141.124 1.37891C125.399 0.905166 109.659 0.942297 93.9327 1.34434C78.2806 1.74509 62.6658 2.55813 47.0652 3.87308C39.1581 4.53759 31.2613 5.25973 23.3748 6.12398C16.0735 6.92293 8.42881 7.29937 1.39116 9.48113C1.40145 9.49521 1.41045 9.50929 1.42074 9.52466C0.0780333 10.0791 -0.329667 11.8716 1.65353 12.2723C8.96255 13.7486 17.5924 11.7628 25.0056 11.234C32.5732 10.6936 40.1433 10.2365 47.7224 9.87548C63.3873 9.12902 79.078 8.654 94.761 8.53493C109.762 8.41969 124.767 8.66809 139.758 9.16359C147.226 9.40814 154.688 9.74104 162.146 10.161C169.585 10.5797 177.554 11.7973 184.887 10.1303C184.886 10.1072 184.885 10.0855 184.882 10.0624C187.236 9.33004 189.331 6.59772 186.78 5.38136Z" fill="#508A6E"/>
</g>
</svg>
