<svg width="90" height="60" viewBox="0 0 90 60" fill="none" xmlns="http://www.w3.org/2000/svg">
<rect width="90" height="60" fill="white"/>
<g clip-path="url(#clip0_1_3)">
<path d="M10.0588 25.3038H12.3733C15.0013 25.3038 16.2958 26.7522 16.2958 29.8056C16.2958 32.8588 15.0013 34.3465 12.3733 34.3465H10.0588V25.3038ZM7.70529 36.3821H12.7262C16.1781 36.3821 18.7278 34.2683 18.7278 29.8056C18.7278 25.343 16.1781 23.2682 12.7262 23.2682H7.70529V36.3821Z" fill="#2B2011"/>
<path d="M15.6678 15.8684C15.6678 14.0285 16.7268 13.2065 17.9821 13.2065C18.9235 13.2065 19.7865 13.7937 19.7865 15.3203V21.1138H21.944V15.1246C21.944 12.3844 20.4925 11.3666 18.5705 11.3666C17.2761 11.3666 16.1777 12.0712 15.6678 12.8149V8H13.5104V21.1138H15.6678V15.8684Z" fill="#2B2011"/>
<path d="M53.4043 36.7323C56.5426 36.7323 59.8767 34.6967 59.2491 29.4512H53.326V31.4476H57.0492C56.8954 33.7739 55.1669 34.6967 53.4043 34.6967C51.1684 34.6967 49.4817 32.8567 49.4817 29.8425C49.4817 26.8283 51.0903 24.9494 53.4043 24.9494C55.2088 24.9494 56.3463 25.7323 56.6993 27.2198H59.0137C58.6607 24.5579 56.5034 22.9137 53.4043 22.9137C49.7956 22.9137 47.0499 25.5757 47.0499 29.8035C47.0499 34.0312 49.7172 36.7323 53.4043 36.7323Z" fill="#2B2011"/>
<path d="M8.37294 19.2756C8.37294 20.724 9.31431 21.1938 10.8834 21.1938C11.3149 21.1938 11.7855 21.1545 12.1779 21.1154V19.4714H11.5895C10.8442 19.4714 10.5303 19.3539 10.5303 18.6492V13.2471H12.1779V11.6422H10.5303V8.82358H8.37294V11.6422H7V13.2471H8.37294V19.2756Z" fill="#2B2011"/>
<path d="M29.7511 25.343V23.2682H20.18V36.3821H29.908V34.3073H22.5335V30.7059H29.1627V28.6704H22.5335V25.343H29.7511Z" fill="#2B2011"/>
<path d="M27.7909 13.2058C28.9677 13.2058 29.9483 13.9495 30.1053 15.398H25.3197C25.5158 13.9886 26.6142 13.2058 27.7909 13.2058ZM27.7517 21.4655C30.1837 21.4655 31.9881 19.8997 32.1842 18.2165H29.9876C29.7522 19.1559 28.8501 19.6257 27.8302 19.6257C26.3787 19.6257 25.3197 18.5688 25.3197 16.9638H32.3804V16.4157C32.3804 13.4015 30.5759 11.3659 27.7909 11.3659C25.0059 11.3659 23.0445 13.4406 23.0445 16.4548C23.0445 19.7431 25.2805 21.4655 27.7517 21.4655Z" fill="#2B2011"/>
<path d="M31.1625 26.8283C31.1625 27.9245 31.5547 28.8248 32.3392 29.4903C32.9669 29.9992 33.8691 30.3515 35.1635 30.5864L37.0071 30.9387C38.4192 31.2127 39.3216 31.565 39.3216 32.7785C39.3216 33.6788 38.4977 34.7358 36.3796 34.7358C35.1635 34.7358 34.3789 34.3836 33.8297 33.8746C33.32 33.4049 33.0845 32.7002 33.0845 32.0349H30.7703V32.2304C30.7703 33.6398 31.3586 34.7749 32.3785 35.5579C33.32 36.3017 34.7319 36.7323 36.2619 36.7323C39.7921 36.7323 41.7535 34.9708 41.7535 32.5437C41.7535 30.2732 40.1845 29.2944 38.0663 28.8639L35.3204 28.3158C33.9867 28.0418 33.5553 27.4546 33.5553 26.6717C33.5553 25.7323 34.4575 24.9102 36.2619 24.9102C38.2231 24.9102 39.1254 25.7714 39.243 27.2198H41.4788C41.4788 25.0275 39.9883 22.9137 36.2619 22.9137C33.3592 22.9137 31.1625 24.4796 31.1625 26.8283Z" fill="#2B2011"/>
<path d="M14.0992 44.522L10.6865 38.5329H7.70529V51.6466H9.98035V41.6644L13.1185 47.1058H14.9229L18.061 41.6644V51.6466H20.336V38.5329H17.4333L14.0992 44.522Z" fill="#2B2011"/>
<path d="M48.4993 45.9706H55.1284V43.9349H48.4993V40.6076H55.7169V38.5329H46.1457V51.6466H55.8739V49.5719H48.4993V45.9706Z" fill="#2B2011"/>
<path d="M65.487 47.1058C65.487 49.1414 64.0749 49.9243 62.5059 49.9243C60.9369 49.9243 59.6032 49.1414 59.6032 47.1058V38.5329H57.2495V47.184C57.2495 50.0026 59.0146 51.9991 62.5059 51.9991C65.9969 51.9991 67.7622 50.0026 67.7622 47.184V38.5329H65.487V47.1058Z" fill="#2B2011"/>
<path d="M79.0979 38.5329L75.7637 44.522L72.3509 38.5329H69.3698V51.6466H71.6448V41.6644L74.783 47.1058H76.5875L79.7254 41.6644V51.6466H82.0006V38.5329H79.0979Z" fill="#2B2011"/>
<path d="M71.4877 23.2682H69.2127V33.0938L63.6426 23.2682H60.7399V36.3821H63.0149V26.5565L68.5851 36.3821H71.4877V23.2682Z" fill="#2B2011"/>
<path d="M30.2222 47.1058C30.2222 49.1414 28.8101 49.9243 27.2411 49.9243C25.6719 49.9243 24.3383 49.1414 24.3383 47.1058V38.5329H21.9848V47.184C21.9848 50.0026 23.75 51.9991 27.2411 51.9991C30.7321 51.9991 32.4973 50.0026 32.4973 47.184V38.5329H30.2222V47.1058Z" fill="#2B2011"/>
<path d="M41.0103 44.1322L38.2646 43.5841C36.9308 43.3101 36.4995 42.7229 36.4995 41.9399C36.4995 41.0004 37.4016 40.1784 39.2061 40.1784C41.1674 40.1784 42.0694 41.0396 42.1872 42.4879H44.423C44.423 40.2958 42.9324 38.182 39.2061 38.182C36.3033 38.182 34.1067 39.7478 34.1067 42.0966C34.1067 43.1927 34.4988 44.0929 35.2835 44.7585C35.911 45.2674 36.8131 45.6197 38.1077 45.8545L39.9514 46.2068C41.3634 46.4807 42.2656 46.8332 42.2656 48.0467C42.2656 48.947 41.4419 50.004 39.3237 50.004C38.1077 50.004 37.3231 49.6518 36.774 49.1428C36.2642 48.673 36.0287 47.9684 36.0287 47.3029H33.7144V47.4987C33.7144 48.9079 34.3028 50.0433 35.3227 50.8259C36.2642 51.5697 37.6761 52.0005 39.2061 52.0005C42.7363 52.0005 44.6977 50.2389 44.6977 47.8117C44.6977 45.5413 43.1286 44.5627 41.0103 44.1322Z" fill="#2B2011"/>
<path d="M43.2052 36.3821H45.5586V23.2682H43.2052V36.3821Z" fill="#2B2011"/>
</g>
<defs>
<clipPath id="clip0_1_3">
<rect width="75" height="44" fill="white" transform="translate(7 8)"/>
</clipPath>
</defs>
</svg>
