<svg width="19" height="20" viewBox="0 0 19 20" fill="none" xmlns="http://www.w3.org/2000/svg">
<path d="M1.66675 1.6665H2.75522C2.96023 1.6665 3.06274 1.6665 3.14523 1.7042C3.21793 1.73743 3.27954 1.79086 3.32271 1.85813C3.37169 1.93446 3.38619 2.03594 3.41518 2.23889L3.80961 4.99984M3.80961 4.99984L4.68618 11.4427C4.79742 12.2603 4.85304 12.6691 5.0485 12.9768C5.22073 13.2479 5.46765 13.4635 5.75954 13.5976C6.0908 13.7498 6.50337 13.7498 7.3285 13.7498H14.4601C15.2455 13.7498 15.6383 13.7498 15.9592 13.6085C16.2422 13.4839 16.485 13.283 16.6603 13.0284C16.8592 12.7395 16.9327 12.3537 17.0796 11.5821L18.1827 5.79125C18.2344 5.51968 18.2603 5.38389 18.2228 5.27775C18.1899 5.18465 18.125 5.10624 18.0397 5.05652C17.9425 4.99984 17.8042 4.99984 17.5278 4.99984H3.80961ZM8.33341 17.4998C8.33341 17.9601 7.96032 18.3332 7.50008 18.3332C7.03984 18.3332 6.66675 17.9601 6.66675 17.4998C6.66675 17.0396 7.03984 16.6665 7.50008 16.6665C7.96032 16.6665 8.33341 17.0396 8.33341 17.4998ZM15.0001 17.4998C15.0001 17.9601 14.627 18.3332 14.1667 18.3332C13.7065 18.3332 13.3334 17.9601 13.3334 17.4998C13.3334 17.0396 13.7065 16.6665 14.1667 16.6665C14.627 16.6665 15.0001 17.0396 15.0001 17.4998Z" stroke="#085C85" stroke-width="1.5" stroke-linecap="round" stroke-linejoin="round"/>
</svg>
