<svg width="102" height="47" viewBox="0 0 102 47" fill="none" xmlns="http://www.w3.org/2000/svg">
<path d="M83.3511 40.1864V42.3922C83.3511 43.227 83.7213 43.5806 84.2191 43.5806C84.7719 43.5806 85.1255 43.2156 85.1255 42.3922V40.1864H85.6119V42.359C85.6119 43.5039 85.0093 43.9736 84.2025 43.9736C83.4393 43.9736 82.8647 43.537 82.8647 42.3807V40.1864H83.3511Z" fill="#085C85"/>
<path d="M58.7791 40.1864V42.3922C58.7791 43.227 59.1493 43.5806 59.6471 43.5806C60.1998 43.5806 60.5535 43.2156 60.5535 42.3922V40.1864H61.0398V42.359C61.0398 43.5039 60.4373 43.9736 59.6305 43.9736C58.8672 43.9736 58.2927 43.537 58.2927 42.3807V40.1864H58.7791Z" fill="#085C85"/>
<path d="M51.6717 40.9994C51.6717 41.2649 51.793 41.4692 51.9537 41.6683C52.3291 41.4526 52.5728 41.2535 52.5728 40.9382C52.5728 40.7122 52.4453 40.4581 52.1414 40.4581C51.8324 40.4581 51.6717 40.7122 51.6717 40.9994ZM52.8051 43.2716C52.5842 43.0279 52.1694 42.5747 51.7546 42.0997C51.5555 42.2262 51.2734 42.4647 51.2734 42.8567C51.2734 43.283 51.5887 43.6086 52.0367 43.6086C52.3571 43.6086 52.6278 43.4655 52.8051 43.2716ZM53.3911 43.9124C53.2863 43.8077 53.1868 43.703 53.0426 43.5484C52.7222 43.8461 52.3623 43.9736 51.9537 43.9736C51.2299 43.9736 50.8088 43.4873 50.8088 42.9283C50.8088 42.4202 51.1137 42.0717 51.5389 41.8394V41.8228C51.345 41.5802 51.2299 41.3095 51.2299 41.044C51.2299 40.5908 51.5555 40.1262 52.1746 40.1262C52.6392 40.1262 52.998 40.4353 52.998 40.9164C52.998 41.3095 52.7719 41.6185 52.1798 41.912V41.9286C52.4951 42.2926 52.8487 42.7022 53.0872 42.9677C53.2583 42.7074 53.3745 42.3486 53.446 41.8788H53.8888C53.7893 42.4647 53.6285 42.9283 53.3527 43.255C53.5508 43.4655 53.7447 43.675 53.9656 43.9124H53.3911Z" fill="#085C85"/>
<path d="M72.3591 43.7909C72.1817 43.8791 71.8281 43.9683 71.3749 43.9683C70.3244 43.9683 69.5342 43.3046 69.5342 42.0829C69.5342 40.9163 70.3244 40.126 71.4797 40.126C71.9443 40.126 72.2377 40.2256 72.3643 40.292L72.2481 40.684C72.0656 40.5958 71.8063 40.5294 71.4963 40.5294C70.6231 40.5294 70.0423 41.0874 70.0423 42.0663C70.0423 42.9779 70.5681 43.5638 71.4745 43.5638C71.768 43.5638 72.0656 43.5037 72.2595 43.4093L72.3591 43.7909Z" fill="#085C85"/>
<path d="M35.0066 34.3449L46.9107 13.0576V12.7797C46.5322 12.9778 44.8014 13.1935 43.5103 13.1935H33.3037C31.9338 13.1997 30.0205 12.872 29.4128 12.6159V18.2117L29.7363 18.2065V17.8301C29.7322 15.8691 30.9839 14.579 32.9594 14.5531H40.7237L28.9596 35.3913L28.9534 35.6899H38.127C38.1343 35.244 38.0917 34.7929 38.0503 34.3449H35.0066Z" fill="#991B1E"/>
<path d="M43.2719 43.7909C43.0946 43.8791 42.7409 43.9683 42.2878 43.9683C41.2372 43.9683 40.447 43.3046 40.447 42.0829C40.447 40.9163 41.2372 40.126 42.3925 40.126C42.8571 40.126 43.1506 40.2256 43.2771 40.292L43.1609 40.684C42.9784 40.5958 42.7192 40.5294 42.4091 40.5294C41.5359 40.5294 40.9552 41.0874 40.9552 42.0663C40.9552 42.9779 41.4809 43.5638 42.3873 43.5638C42.6808 43.5638 42.9784 43.5037 43.1724 43.4093L43.2719 43.7909Z" fill="#085C85"/>
<path d="M98.9084 43.3269C99.1241 43.4596 99.4394 43.5706 99.7713 43.5706C100.263 43.5706 100.55 43.3103 100.55 42.9349C100.55 42.5864 100.351 42.3873 99.848 42.1934C99.2403 41.9777 98.8639 41.6624 98.8639 41.1377C98.8639 40.557 99.345 40.1256 100.069 40.1256C100.451 40.1256 100.727 40.2147 100.893 40.3081L100.761 40.7011C100.639 40.6347 100.39 40.5238 100.052 40.5238C99.5441 40.5238 99.3502 40.8276 99.3502 41.0827C99.3502 41.4312 99.5773 41.6023 100.092 41.8014C100.722 42.0441 101.043 42.3479 101.043 42.8955C101.043 43.471 100.616 43.9678 99.7381 43.9678C99.3782 43.9678 98.9862 43.863 98.7871 43.7303L98.9084 43.3269Z" fill="#085C85"/>
<path d="M80.0789 43.3269C80.2946 43.4596 80.6098 43.5706 80.9417 43.5706C81.4332 43.5706 81.7205 43.3103 81.7205 42.9349C81.7205 42.5864 81.5214 42.3873 81.0184 42.1934C80.4107 41.9777 80.0343 41.6624 80.0343 41.1377C80.0343 40.557 80.5154 40.1256 81.2393 40.1256C81.6209 40.1256 81.8978 40.2147 82.0637 40.3081L81.931 40.7011C81.8097 40.6347 81.5608 40.5238 81.2227 40.5238C80.7146 40.5238 80.5206 40.8276 80.5206 41.0827C80.5206 41.4312 80.7477 41.6023 81.2621 41.8014C81.8926 42.0441 82.2131 42.3479 82.2131 42.8955C82.2131 43.471 81.7869 43.9678 80.9085 43.9678C80.5486 43.9678 80.1566 43.863 79.9575 43.7303L80.0789 43.3269Z" fill="#085C85"/>
<path d="M55.5073 43.3269C55.723 43.4596 56.0383 43.5706 56.3701 43.5706C56.8617 43.5706 57.1489 43.3103 57.1489 42.9349C57.1489 42.5864 56.9498 42.3873 56.4469 42.1934C55.8392 41.9777 55.4627 41.6624 55.4627 41.1377C55.4627 40.557 55.9439 40.1256 56.6678 40.1256C57.0494 40.1256 57.3263 40.2147 57.4922 40.3081L57.3595 40.7011C57.2381 40.6347 56.9892 40.5238 56.6522 40.5238C56.143 40.5238 55.9491 40.8276 55.9491 41.0827C55.9491 41.4312 56.1762 41.6023 56.6906 41.8014C57.3211 42.0441 57.6415 42.3479 57.6415 42.8955C57.6415 43.471 57.2153 43.9678 56.3369 43.9678C55.9771 43.9678 55.5851 43.863 55.386 43.7303L55.5073 43.3269Z" fill="#085C85"/>
<path d="M67.7 43.7469C67.4843 43.8247 67.0591 43.9512 66.5551 43.9512C65.992 43.9512 65.5274 43.8081 65.1624 43.4596C64.8419 43.1495 64.6428 42.6518 64.6428 42.0721C64.648 40.9604 65.4113 40.1484 66.6609 40.1484C67.0923 40.1484 67.4293 40.2417 67.589 40.3195L67.4729 40.7115C67.2748 40.6233 67.0259 40.5518 66.6495 40.5518C65.7431 40.5518 65.151 41.1149 65.151 42.0492C65.151 42.995 65.7213 43.5529 66.5883 43.5529C66.9036 43.5529 67.1193 43.5094 67.2302 43.4534V42.3427H66.4732V41.9559H67.7V43.7469Z" fill="#085C85"/>
<path d="M36.1472 43.531C36.2685 43.5528 36.4459 43.559 36.6336 43.559C37.6623 43.559 38.2202 42.9834 38.2202 41.9775C38.2254 41.0981 37.7287 40.5402 36.7113 40.5402C36.4625 40.5402 36.2748 40.562 36.1472 40.59V43.531ZM35.666 40.2363C35.9595 40.1917 36.3079 40.1585 36.6885 40.1585C37.3802 40.1585 37.8718 40.3193 38.1985 40.6231C38.5303 40.927 38.7232 41.3584 38.7232 41.9609C38.7232 42.5686 38.5355 43.0664 38.1871 43.4097C37.8386 43.7581 37.2641 43.9458 36.5392 43.9458C36.197 43.9458 35.9097 43.9292 35.666 43.9012V40.2363Z" fill="#085C85"/>
<path d="M98.1852 42.1657H96.7365V43.5086H98.3512V43.9131H96.2563V40.187H98.2682V40.5904H96.7365V41.7675H98.1852V42.1657Z" fill="#085C85"/>
<path d="M34.8764 42.1657H33.4277V43.5086H35.0423V43.9131H32.9475V40.187H34.9594V40.5904H33.4277V41.7675H34.8764V42.1657Z" fill="#085C85"/>
<path d="M74.8069 42.3648L74.4419 41.2925C74.3589 41.0488 74.3039 40.8279 74.249 40.6122H74.2376C74.1826 40.8331 74.1214 41.0602 74.0499 41.2863L73.6848 42.3648H74.8069ZM73.5853 42.7402L73.1985 43.9131H72.7007L73.9669 40.187H74.5466L75.8191 43.9131H75.3047L74.9065 42.7402H73.5853Z" fill="#085C85"/>
<path d="M45.7197 42.3648L45.3547 41.2925C45.2717 41.0488 45.2168 40.8279 45.1618 40.6122H45.1504C45.0955 40.8331 45.0343 41.0602 44.9627 41.2863L44.5977 42.3648H45.7197ZM44.4981 42.7402L44.1113 43.9131H43.6135L44.8797 40.187H45.4595L46.7319 43.9131H46.2175L45.8193 42.7402H44.4981Z" fill="#085C85"/>
<path d="M89.8669 42.0273C89.9717 42.0553 90.1044 42.0656 90.2652 42.0656C90.8459 42.0656 91.1995 41.7836 91.1995 41.2702C91.1995 40.7776 90.8511 40.5402 90.3201 40.5402C90.1106 40.5402 89.9499 40.5567 89.8669 40.5785V42.0273ZM89.3857 40.2301C89.618 40.1917 89.9219 40.1585 90.3087 40.1585C90.7847 40.1585 91.1332 40.2695 91.354 40.4686C91.5583 40.6449 91.6807 40.9156 91.6807 41.2474C91.6807 41.5855 91.5812 41.8499 91.3924 42.0439C91.1383 42.3145 90.7235 42.4524 90.2537 42.4524C90.1106 42.4524 89.9779 42.4473 89.8669 42.4193V43.9126H89.3857V40.2301Z" fill="#085C85"/>
<path d="M86.9267 42.0273C87.0315 42.0553 87.1642 42.0656 87.325 42.0656C87.9057 42.0656 88.2593 41.7836 88.2593 41.2702C88.2593 40.7776 87.9109 40.5402 87.3799 40.5402C87.1704 40.5402 87.0097 40.5567 86.9267 40.5785V42.0273ZM86.4456 40.2301C86.6779 40.1917 86.9817 40.1585 87.3685 40.1585C87.8445 40.1585 88.193 40.2695 88.4139 40.4686C88.6182 40.6449 88.7405 40.9156 88.7405 41.2474C88.7405 41.5855 88.641 41.8499 88.4522 42.0439C88.1982 42.3145 87.7833 42.4524 87.3136 42.4524C87.1704 42.4524 87.0377 42.4473 86.9267 42.4193V43.9126H86.4456V40.2301Z" fill="#085C85"/>
<path d="M95.416 43.9126H94.9348V40.1865H95.416V43.9126Z" fill="#085C85"/>
<path d="M68.9155 43.9126H68.4343V40.1865H68.9155V43.9126Z" fill="#085C85"/>
<path d="M39.8276 43.9126H39.3464V40.1865H39.8276V43.9126Z" fill="#085C85"/>
<path d="M31.6435 42.2762C31.6155 41.7566 31.5823 41.1313 31.5885 40.6677H31.572C31.4444 41.1043 31.2899 41.5689 31.1022 42.0822L30.4437 43.8908H30.0786L29.4761 42.1154C29.2998 41.5907 29.1505 41.1095 29.0447 40.6677H29.0343C29.0229 41.1313 28.996 41.7566 28.9628 42.3145L28.8632 43.9126H28.4038L28.6641 40.1865H29.277L29.9127 41.9889C30.0683 42.4473 30.1948 42.8569 30.2891 43.2437H30.3057C30.4001 42.8673 30.5318 42.4587 30.6977 41.9889L31.3614 40.1865H31.9754L32.2077 43.9126H31.7379L31.6435 42.2762Z" fill="#085C85"/>
<path d="M92.3262 40.1865H92.8074V43.5092H94.3992V43.9126H92.3262V40.1865Z" fill="#085C85"/>
<path d="M76.3652 40.1865H76.8464V43.5092H78.4383V43.9126H76.3652V40.1865Z" fill="#085C85"/>
<path d="M47.2781 40.1865H47.7593V43.5092H49.3511V43.9126H47.2781V40.1865Z" fill="#085C85"/>
<path d="M62.355 41.9334H62.8465C63.3609 41.9334 63.6876 41.6514 63.6876 41.2262C63.6876 40.745 63.3391 40.5345 62.8299 40.5293C62.5987 40.5293 62.4327 40.5511 62.355 40.5739V41.9334ZM61.8738 40.2358C62.1175 40.186 62.4659 40.1591 62.7967 40.1591C63.3111 40.1591 63.643 40.2524 63.8753 40.4629C64.063 40.6288 64.1687 40.8829 64.1687 41.1702C64.1687 41.6628 63.8587 41.9884 63.4667 42.1211V42.1377C63.7539 42.2373 63.925 42.5028 64.0132 42.8896C64.1356 43.4091 64.2237 43.769 64.3004 43.9121H63.8037C63.7425 43.8074 63.6596 43.4869 63.5548 43.0223C63.4439 42.508 63.2447 42.3151 62.8081 42.2985H62.355V43.9121H61.8738V40.2358Z" fill="#085C85"/>
<path d="M47.8347 29.2324H47.5122C47.1264 30.6511 46.473 31.8364 45.6123 32.7096C46.0914 32.9813 46.5747 33.2499 47.0631 33.5112L47.8347 29.2324Z" fill="#991B1E"/>
<path d="M45.6126 32.7095C44.5891 33.7486 43.271 34.3449 41.7445 34.3449H38.0505C38.092 34.7919 38.1345 35.244 38.1273 35.6899H46.6704L47.0634 33.5111C46.5739 33.2498 46.0917 32.9812 45.6126 32.7095Z" fill="#991B1E"/>
<path fill-rule="evenodd" clip-rule="evenodd" d="M10.0945 32.6891C5.05141 31.0662 1.4 26.3394 1.4 20.756C1.4 13.8306 7.01452 8.21715 13.9399 8.21715C16.4287 8.21715 18.7465 8.94307 20.6961 10.1937C20.552 9.55181 20.3778 8.91715 20.1776 8.29078C18.3006 7.34915 16.183 6.81611 13.9399 6.81611C6.24089 6.81611 0 13.057 0 20.756C0 26.8537 3.91585 32.0327 9.36859 33.9253C9.59882 33.5053 9.84252 33.0946 10.0945 32.6891Z" fill="#085C85"/>
<path fill-rule="evenodd" clip-rule="evenodd" d="M7.03611 46.46C7.03611 46.153 7.03507 45.8471 7.03611 45.5401C7.05062 41.7114 7.79833 38.0496 9.54262 34.618C10.589 32.5574 11.9143 30.6835 13.3931 28.9164C14.9259 27.0829 16.5022 25.2857 18.0152 23.4357C19.1964 21.9911 20.1774 20.4127 20.8463 18.658C21.536 16.8484 21.788 14.9755 21.6594 13.0477C21.4696 10.2446 20.6213 7.6167 19.464 5.0853C18.8179 3.66974 18.066 2.30293 17.3619 0.914334C17.3277 0.846926 17.2955 0.779516 17.2395 0.666479C17.3048 0.703813 17.3308 0.713146 17.3484 0.730776C19.3831 2.69492 21.2964 4.76485 22.8883 7.1127C23.9626 8.69937 24.8503 10.3763 25.3471 12.2408C26.0139 14.7443 25.7277 17.146 24.5921 19.4597C23.7811 21.1158 22.7016 22.5884 21.4831 23.9563C20.2573 25.3324 18.9911 26.6723 17.7248 28.0111C15.8271 30.0167 13.9334 32.0254 12.2763 34.2416C9.85062 37.4844 8.06899 41.0228 7.31611 45.033C7.22692 45.5069 7.15744 45.984 7.07966 46.46H7.03611Z" fill="#085C85"/>
<path d="M54.0932 31.9444L54.3089 35.7887C53.3082 37.4417 51.4052 38.7764 48.0328 38.7764C42.5489 38.7536 38.9722 35.7233 38.9722 30.6242C38.9722 25.6288 42.4234 22.5167 48.096 22.5167C50.475 22.5167 52.3831 23.0694 53.6504 23.7269L53.6939 27.5587H53.5083C52.6942 24.626 50.7768 23.4583 48.32 23.4573C44.7775 23.4573 42.6132 26.1857 42.6132 30.5734C42.6132 34.9953 44.707 37.7466 48.0328 37.8358C51.4695 37.8316 53.2117 36.3362 53.9065 31.9444H54.0932Z" fill="#085C85"/>
<path d="M64.512 33.1378L62.327 27.6539L60.0382 33.1378H64.512ZM69.9502 36.9437C70.4335 37.8573 71.1978 38.239 71.8563 38.239H72.043V38.4619H64.9268V38.241H65.1228C65.6994 38.241 66.3268 37.7329 65.9867 36.839L64.8864 34.0794H59.6452L58.5034 36.839C58.1363 37.7329 58.7803 38.241 59.3579 38.241H59.5539V38.4619H54.7649V38.239H54.9661C55.6007 38.239 56.3702 37.8677 56.8452 36.981L62.0096 25.3061C62.1683 24.9659 63.0539 23.0298 63.1079 22.3795H63.309L69.9502 36.9437Z" fill="#085C85"/>
<path d="M80.0461 22.8275C82.7538 22.8275 85.3588 23.9289 85.3588 27.04C85.3588 28.9191 84.2368 31.0315 81.7022 31.2835C82.6459 31.5926 83.4849 32.4792 83.9806 33.2622C84.048 33.3711 85.3879 35.495 86.2299 36.5444C87.1923 37.7702 87.8291 38.2203 88.9936 38.2379V38.4619H86.819C84.3757 38.4619 82.5982 37.933 81.5736 36.1462C81.0302 35.2004 80.0233 32.9884 79.7122 32.3206C79.2787 31.3883 78.7799 30.9154 78.2002 30.8158V30.6032H78.8815C80.0824 30.5908 81.304 29.9779 81.7022 28.0221C81.7551 27.7493 81.8039 27.3905 81.7852 26.9404C81.696 24.8041 80.6175 23.848 79.1511 23.8127C78.5579 23.7868 77.7366 23.8117 77.4566 23.8055V36.8348C77.4711 37.6126 78.1058 38.239 78.8919 38.239H79.1698L79.1729 38.4619H72.3824L72.3855 38.239H72.6686C73.4464 38.239 74.079 37.6178 74.0987 36.8452V24.4536C74.0831 23.6758 73.4495 23.0495 72.6696 23.0505H72.3855L72.3813 22.8286L80.0461 22.8275Z" fill="#085C85"/>
<path d="M100.294 38.4624H88.7302L88.7333 38.2394H89.0164C89.7984 38.2394 90.432 37.6131 90.4465 36.8343V24.3826C90.3957 23.638 89.7776 23.05 89.0196 23.05H88.7364L88.7333 22.828H97.2962C98.2585 22.8187 99.5465 22.5957 99.9613 22.4215V26.326L99.7363 26.3228V26.0605C99.7394 24.7165 98.8942 23.8381 97.5554 23.7821H93.7972V30.2802H96.7579C97.8541 30.2594 98.6547 29.4547 98.6516 28.3668V28.1729L98.8704 28.1698V33.3322L98.6516 33.3291V33.1351C98.6547 32.0566 97.8676 31.256 96.7859 31.2228H93.7962V37.5073H96.7289C98.9596 37.5073 100.407 36.1208 101.1 33.9046H101.324L100.294 38.4624Z" fill="#085C85"/>
<path fill-rule="evenodd" clip-rule="evenodd" d="M9.66464 23.3501C9.66464 25.0954 9.6636 26.8397 9.6636 28.585V28.7779C9.75589 28.7987 11.4089 28.8059 12.9469 28.8039C13.8232 27.7585 14.7109 26.7225 15.5934 25.6824C15.5934 24.9067 15.5934 24.1299 15.5934 23.3542C15.5934 23.3127 15.5944 23.2723 15.5944 23.2308C15.5944 23.1759 15.6224 23.1479 15.6784 23.1479C15.7469 23.1479 15.8153 23.1468 15.8827 23.1468C16.4894 23.1468 17.096 23.1458 17.7027 23.1458C18.7812 21.781 19.6803 20.297 20.3046 18.6575C20.482 18.1929 20.6292 17.7242 20.7495 17.2513C19.1017 17.2513 17.4538 17.2513 15.8049 17.2513C15.7697 17.2513 15.7323 17.2492 15.6971 17.2513C15.6297 17.2533 15.5944 17.2243 15.5944 17.1548C15.5955 17.0822 15.5934 17.0096 15.5934 16.937C15.5934 15.2239 15.5944 13.5107 15.5944 11.7975C15.5944 11.7353 15.5882 11.673 15.584 11.5973H15.3953C14.3178 11.5973 13.2403 11.5973 12.1639 11.5973C11.3913 11.5973 10.6187 11.5973 9.84612 11.5973C9.79012 11.5973 9.73308 11.6056 9.6636 11.6108V11.8286C9.66464 13.547 9.66464 15.2653 9.66256 16.9827C9.66256 17.2616 9.7196 17.2513 9.39293 17.2513C7.62478 17.2513 5.85767 17.2513 4.08952 17.2513C4.04078 17.2513 3.99308 17.2575 3.95056 17.2596C3.91634 17.3985 3.91841 23.0193 3.95367 23.1468H4.10819H9.46552C9.66464 23.1468 9.66464 23.1468 9.66464 23.3501Z" fill="#991B1E"/>
<path fill-rule="evenodd" clip-rule="evenodd" d="M33.8081 9.4906C33.6858 9.81311 33.5976 10.1543 33.4358 10.4571C32.8105 11.6248 31.4354 12.217 30.1463 11.8976C28.8179 11.5678 27.896 10.4156 27.8794 9.0623C27.8607 7.48289 28.9538 6.24778 30.556 6.04037C31.9746 5.85682 33.3705 6.8503 33.7345 8.30111C33.7532 8.37474 33.7832 8.4463 33.8081 8.51889V9.4906Z" fill="#991B1E"/>
</svg>
