<svg width="24" height="19" viewBox="0 0 24 19" fill="none" xmlns="http://www.w3.org/2000/svg">
<path d="M18.8876 18.4C17.4675 18.4 16.2604 17.9027 15.2663 16.9081C14.2722 15.9135 13.7751 14.7058 13.7751 13.2849C13.7751 13.0481 13.7988 12.5035 13.8462 11.651C13.8935 10.7511 14.1065 9.68546 14.4852 8.45405C14.9112 7.22265 15.574 5.87284 16.4734 4.40463C17.4201 2.88906 18.7692 1.42085 20.5207 0H23.858C22.9112 0.947233 22.1065 1.89447 21.4438 2.8417C20.8284 3.78893 20.3077 4.66512 19.8817 5.47027C19.4083 6.37014 19.0769 7.27001 18.8876 8.16988C20.3077 8.16988 21.5148 8.66718 22.5089 9.66178C23.503 10.6564 24 11.8641 24 13.2849C24 14.7058 23.503 15.9135 22.5089 16.9081C21.5148 17.9027 20.3077 18.4 18.8876 18.4ZM5.11243 18.4C3.69231 18.4 2.48521 17.9027 1.49112 16.9081C0.497041 15.9135 0 14.7058 0 13.2849C0 13.0481 0.0236686 12.5035 0.0710059 11.651C0.118343 10.7511 0.331361 9.68546 0.710059 8.45405C1.08876 7.22265 1.72781 5.87284 2.62722 4.40463C3.57396 2.88906 4.92308 1.42085 6.67456 0H10.0118C9.06509 0.947233 8.26035 1.89447 7.59763 2.8417C6.98225 3.78893 6.48521 4.66512 6.10651 5.47027C5.63314 6.37014 5.30177 7.27001 5.11243 8.16988C6.53254 8.16988 7.71598 8.66718 8.66272 9.66178C9.65681 10.6564 10.1538 11.8641 10.1538 13.2849C10.1538 14.7058 9.65681 15.9135 8.66272 16.9081C7.71598 17.9027 6.53254 18.4 5.11243 18.4Z" fill="#E09998"/>
</svg>
