<svg width="170" height="108" viewBox="0 0 170 108" fill="none" xmlns="http://www.w3.org/2000/svg">
<path d="M59.4299 36.3724C59.8542 35.9906 66.7131 29.7681 74.1095 32.4268C75.0499 32.7733 75.8914 33.1622 76.6692 33.5864C77.8289 32.6248 82.2341 27.9791 87.5799 28.6438C91.4053 29.1034 94.46 31.3661 96.5672 34.3077C110.822 31.1823 115.687 40.6151 111.685 50.8681C111.324 51.7944 110.921 52.5935 110.462 53.2511C116.147 64.0274 112.463 72.4349 108.383 77.2786C104.282 82.1434 105.54 91.7318 105.54 91.7318L109.5 116.155C94.6863 119.415 80.1977 118.588 66.1969 111.969C69.1809 105.379 67.9789 86.5275 67.9789 86.5275C65.6949 85.6861 58.9915 82.9425 54.7065 75.8573C53.1862 73.3329 48.5405 65.6891 51.9841 58.2857C53.1508 55.8037 54.9257 53.9865 56.8914 52.6995C55.5479 51.3136 54.5509 49.1993 54.5721 47.2972C54.5933 44.391 55.4348 40.113 59.437 36.3795L59.4299 36.3724Z" fill="#FFE370"/>
<path d="M110.469 53.244C116.14 64.0344 112.484 72.4419 108.376 77.2856C104.282 82.1293 105.547 91.7389 105.547 91.7389L109.5 116.155" stroke="#B92C00" stroke-width="2.48" stroke-linecap="round" stroke-linejoin="round"/>
<path d="M96.7652 54.0501C96.7652 54.0501 107.351 61.8919 111.671 50.8539C115.694 40.5797 111.162 31.0408 96.8217 34.2369" stroke="#B92C00" stroke-width="2.48" stroke-linecap="round" stroke-linejoin="round"/>
<path d="M84.6312 57.9675C85.2252 58.0523 92.4872 58.9079 97.0551 53.7319C100.789 49.5034 100.166 44.2567 99.9896 42.7505C99.2754 36.7331 94.7641 29.5064 87.5728 28.6367C82.2341 27.9932 77.8288 32.6389 76.6833 33.5864" stroke="#B92C00" stroke-width="2.48" stroke-linecap="round" stroke-linejoin="round"/>
<path d="M83.4221 54.2551C83.9878 52.3177 85.5222 46.4275 82.8918 40.1766C81.9442 37.928 79.2926 34.2864 74.0954 32.4267C66.7132 29.7821 59.833 35.9835 59.4158 36.3724C55.4065 40.0988 54.5792 44.3768 54.5509 47.276C54.5368 49.1993 55.3005 51.0378 56.651 52.3884" stroke="#B92C00" stroke-width="2.48" stroke-linecap="round" stroke-linejoin="round"/>
<path d="M66.1758 64.8971C72.0023 69.5923 79.3421 68.9984 82.5311 65.1588C84.9565 62.2384 85.3242 57.6705 83.613 54.5875C80.0351 48.1387 69.5275 49.0297 67.6183 49.1994C65.7939 49.3691 55.7106 50.2883 51.9841 58.2998C48.5476 65.682 53.1791 73.34 54.6994 75.8502C58.9986 82.9496 65.6878 85.6931 67.993 86.5275C67.993 86.5275 69.1951 105.393 66.197 111.969" stroke="#B92C00" stroke-width="2.48" stroke-linecap="round" stroke-linejoin="round"/>
<path d="M91.6881 79.5201C95.3934 73.2976 94.361 66.6367 90.7406 64.0769C88.2375 62.3092 85.0131 62.8748 83.7756 63.1648" stroke="#B92C00" stroke-width="2.48" stroke-linecap="round" stroke-linejoin="round"/>
<path d="M64.7191 49.5953L64.712 43.9738" stroke="#B92C00" stroke-width="2.48" stroke-linecap="round" stroke-linejoin="round"/>
<path d="M22.002 40.5001C32.5002 42 47.5002 45.5 64.5002 44C64.5002 44.5 64.1016 46.6 64.5002 49C57.3002 50.2 52.9996 55.3333 52.0002 57.5C30.5002 64.5 29.5012 68.0002 22.0012 69.0002C14.5012 70.0002 11.0453 38.9347 22.002 40.5001Z" fill="#FF9CF6" stroke="#B92C00" stroke-width="2.5"/>
<path d="M145.501 39C135.003 40.4999 126.501 43 113.501 44C113.501 44.5 114.001 48.1667 112.001 51.5C110.501 54 111.502 55.3333 112.501 57.5C134 60.5 135.5 63 143 64C150.5 65 156.458 37.4347 145.501 39Z" fill="#FF9CF6" stroke="#B92C00" stroke-width="2.5"/>
<path d="M20.0002 40.5C25.5002 40.5 29.0002 57.5 24.5002 60C20.9002 62 20.0002 56.1667 20.0002 53" stroke="#B92C00" stroke-width="2.5"/>
<path d="M23.5002 60.5L51.5002 57.5" stroke="#B92C00" stroke-width="2.5"/>
</svg>
