<svg width="116" height="107" viewBox="0 0 116 107" fill="none" xmlns="http://www.w3.org/2000/svg">
<path d="M11.2889 54.6152L3.95775 59.6612C3.76817 63.7802 5.3385 66.4754 8.94679 66.5593L16.6983 63.3809C14.0841 61.2214 12.0862 57.6779 11.2889 54.6152Z" fill="white"/>
<path d="M22.3228 44.0361L10.5657 51.6396C11.4132 56.1649 13.4073 61.368 18.7883 65.0173L24.313 62.617C22.9466 56.4639 22.2538 50.2083 22.3228 44.0361Z" fill="#8885D2"/>
<path d="M82.9936 3.61863C82.9936 3.61863 79.0394 22.6222 101.217 38.5405C100.347 42.6455 96.6625 40.4891 96.6625 40.4891C76.9623 25.4197 79.0271 5.65737 79.0271 5.65737C79.0271 5.65737 79.3758 1.52174 82.9936 3.61863Z" fill="white"/>
<path d="M56.4113 17.087C52.029 17.067 47.4384 19.6816 46.3225 27.1149C42.027 24.932 33.6055 24.8617 32.1289 37.0772C28.1174 34.2628 22.4913 37.3526 22.3399 42.7992C21.7363 64.5008 30.683 87.4089 45.1788 103.292C49.3617 105.77 68.1578 112.827 90.7264 90.5783C92.9095 88.3265 86.106 80.2891 85.954 76.9709C88.106 65.6293 94.8496 59.4369 89.9707 40.6463C89.9179 40.6409 89.8649 40.6354 89.8121 40.6296C88.205 40.6429 86.5938 40.1623 85.2532 39.4727C84.5744 39.2063 83.9089 38.9025 83.2604 38.563L72.0321 42.511C68.807 35.7505 65.6623 28.8816 63.9339 20.1327C62.311 18.3495 59.4097 17.1014 56.4113 17.087Z" fill="#FFCD00"/>
<path d="M22.1401 43.1638C22.0271 43.1826 21.9198 43.2237 21.8244 43.2849L10.0675 50.8884C9.92653 50.9794 9.8166 51.1109 9.7514 51.2669C9.6862 51.4229 9.66838 51.5966 9.70021 51.7669C9.84954 52.5635 10.038 53.3871 10.2714 54.2206L3.44041 58.9225C3.33376 58.9959 3.24599 59.0931 3.18348 59.2072C3.12096 59.3213 3.08526 59.4491 3.07922 59.5814C2.97874 61.7617 3.32494 63.6626 4.30982 65.1028C5.29457 66.5431 6.94581 67.3971 8.96462 67.4441C9.08339 67.4467 9.20054 67.4251 9.30875 67.3805L16.5643 64.4062C17.1081 64.8705 17.6897 65.3187 18.3179 65.7448C18.4437 65.8299 18.5873 65.8824 18.7357 65.8975C18.884 65.9127 19.0322 65.8899 19.1662 65.8314L24.6907 63.4311C24.9011 63.3393 25.063 63.1654 25.1408 62.9479C25.2186 62.7303 25.2061 62.4868 25.1059 62.2708C25.0054 62.0549 24.8255 61.8842 24.6057 61.7964C24.386 61.7085 24.1442 61.7105 23.9337 61.8021L18.908 63.9863C14.2867 60.674 12.4201 56.1968 11.5686 52.063L22.8196 44.7863C23.0117 44.6619 23.1435 44.4636 23.1861 44.2351C23.2286 44.0065 23.1785 43.7663 23.0467 43.5672C22.9482 43.4191 22.8095 43.3019 22.6482 43.2302C22.4869 43.1585 22.31 43.1351 22.1401 43.1638ZM10.8482 56.0139C11.7287 58.4347 13.064 60.8803 15.1326 63.0537L8.80635 65.6473C7.30671 65.5811 6.38037 65.0707 5.74606 64.1429C5.14106 63.2581 4.84212 61.8618 4.86414 60.1328L10.8482 56.0139Z" fill="#474882"/>
<path d="M72.5202 16.6719L63.9331 20.1321C63.924 27.399 72.0313 42.5103 72.0313 42.5103L83.2596 38.5623C80.065 36.9131 77.3415 34.4351 75.3839 31.3961C73.4263 28.357 72.3089 24.8727 72.1527 21.32C72.0882 19.7532 72.2117 18.1926 72.5202 16.6719Z" fill="#8885D2"/>
<path d="M80.6649 2.1812C79.8669 2.31807 79.2876 2.80677 78.93 3.31842C78.2149 4.34172 78.1505 5.54711 78.1505 5.54711C78.1463 5.605 76.1374 25.8797 96.1479 41.1865C96.1799 41.2104 96.2134 41.2323 96.2481 41.2518C96.2481 41.2518 97.3108 41.9047 98.6326 41.9381C99.2935 41.9548 100.06 41.7962 100.706 41.278C101.352 40.7597 101.83 39.9242 102.076 38.7617C102.113 38.5904 102.097 38.4099 102.031 38.2433C101.965 38.0768 101.851 37.9318 101.705 37.8271C90.7812 29.9861 86.3752 21.4758 84.6403 14.9193C82.9055 8.36285 83.8567 3.83475 83.8567 3.83475C83.8951 3.64878 83.872 3.45253 83.7906 3.27574C83.7093 3.09894 83.5742 2.95118 83.4057 2.85439C82.3811 2.26052 81.4629 2.04437 80.6649 2.1812ZM81.0322 3.92625C81.2214 3.89278 81.6702 4.0822 82.0637 4.22709C81.8941 5.25909 81.3305 9.23053 82.9379 15.3052C84.7329 22.089 89.3722 30.8025 100.136 38.7488C99.9606 39.2216 99.7835 39.7057 99.5749 39.873C99.2856 40.1049 98.964 40.1765 98.595 40.1671C97.8825 40.1504 97.1807 39.7692 97.13 39.7423C77.8382 24.939 79.8995 5.78913 79.8995 5.78913C79.9015 5.78247 79.9035 5.77584 79.9054 5.76912C79.9054 5.76912 80.0205 4.90379 80.384 4.38354C80.5657 4.12354 80.7473 3.9751 81.0322 3.92625Z" fill="#474882"/>
<path d="M72.1637 15.8474L63.5763 19.3076C63.4707 19.3502 63.3755 19.4138 63.2959 19.4945C63.2163 19.5752 63.154 19.6716 63.1125 19.7782C63.071 19.8848 63.0513 19.9995 63.0543 20.1158C63.0573 20.2321 63.0829 20.3477 63.1298 20.4559C63.2246 20.674 63.3999 20.8491 63.6173 20.9428C63.8347 21.0365 64.0765 21.0411 64.2895 20.9556L72.8768 17.4972C72.9825 17.4548 73.078 17.3914 73.1578 17.3107C73.2376 17.2301 73.3 17.1337 73.3416 17.0271C73.3832 16.9204 73.4032 16.8056 73.4004 16.6892C73.3975 16.5729 73.372 16.4573 73.3251 16.349C73.2783 16.2406 73.2111 16.1416 73.1274 16.0577C73.0437 15.9739 72.9451 15.9068 72.8373 15.8602C72.7294 15.8136 72.6144 15.7885 72.4988 15.7863C72.3832 15.7841 72.2693 15.8048 72.1637 15.8474Z" fill="#474882"/>
<path d="M56.3727 16.2012C56.1397 16.2012 55.92 16.2943 55.7624 16.4604C55.6047 16.6264 55.522 16.8515 55.5321 17.0864C55.5423 17.3206 55.6441 17.5454 55.8154 17.7113C55.9866 17.8773 56.2132 17.9708 56.4458 17.9717C59.1395 17.9851 61.7377 19.1433 63.1583 20.6228C64.9158 29.2679 68.0288 36.1163 71.1961 42.7587C71.2111 42.8044 71.2298 42.8491 71.2518 42.8921C73.7202 47.6955 77.1397 50.0614 77.1397 50.0614C77.2367 50.129 77.3454 50.1772 77.4592 50.2033C77.573 50.2294 77.6899 50.233 77.8031 50.2135C77.9162 50.1941 78.0234 50.1522 78.1187 50.0902C78.2139 50.0282 78.2952 49.9473 78.3579 49.8522C78.4207 49.7574 78.4638 49.6502 78.4846 49.5369C78.5055 49.4235 78.5037 49.3062 78.4794 49.1915C78.4552 49.0769 78.4091 48.9673 78.3435 48.8688C78.2778 48.7703 78.1941 48.6849 78.097 48.6176C78.097 48.6176 75.4784 46.8198 73.2896 43.0183L83.5811 39.3989C83.7981 39.3227 83.9723 39.1616 84.0655 38.9508C84.1588 38.7401 84.1635 38.497 84.0785 38.275C83.9932 38.0531 83.8252 37.8706 83.6116 37.7675C83.398 37.6644 83.156 37.649 82.9389 37.725L72.4884 41.3997C69.395 34.8899 66.4394 28.3124 64.7962 19.995C64.7636 19.8296 64.6855 19.675 64.5709 19.5489C62.7191 17.5141 59.614 16.2167 56.3762 16.2012C56.3773 16.2012 56.3751 16.2012 56.3762 16.2012H56.3727ZM46.2499 26.2325C46.0184 26.242 45.8039 26.3434 45.6535 26.5148C45.503 26.6862 45.4284 26.9136 45.4464 27.1473C45.4464 27.1473 46.2059 36.3874 51.9515 45.3042C52.0817 45.5041 52.2831 45.6474 52.5116 45.7025C52.7402 45.7575 52.9774 45.7201 53.1709 45.5981C53.2671 45.538 53.3498 45.4588 53.4142 45.3653C53.4787 45.2717 53.5236 45.1654 53.5465 45.0526C53.5693 44.9397 53.5696 44.8224 53.5474 44.7074C53.5252 44.5924 53.4809 44.482 53.417 44.3824C47.9503 35.8984 47.201 27.0762 47.201 27.0762C47.1802 26.8423 47.0684 26.6221 46.8901 26.4639C46.7118 26.3057 46.4817 26.2226 46.2499 26.2325ZM25.7635 35.9542C25.6092 35.9515 25.4587 35.9896 25.3271 36.0649C23.1545 37.3069 21.5437 39.7113 21.4596 42.7346C21.4598 42.7413 21.4601 42.7479 21.4605 42.7546C21.4111 51.6072 22.4227 59.5357 24.6314 67.4899C24.6627 67.6032 24.7156 67.7099 24.7871 67.8043C24.8586 67.8987 24.9474 67.9788 25.0482 68.04C25.1491 68.1011 25.26 68.1422 25.3748 68.1609C25.4896 68.1795 25.6059 68.1753 25.7171 68.1486C25.8283 68.122 25.9323 68.0734 26.0231 68.0054C26.1139 67.9375 26.1897 67.8515 26.2461 67.7526C26.3026 67.6537 26.3386 67.5437 26.3522 67.4289C26.3657 67.3141 26.3565 67.1967 26.3251 67.0835C24.1636 59.299 23.1725 51.5644 23.2193 42.8619C23.2874 40.4395 24.5646 38.5761 26.2453 37.6153C26.3439 37.559 26.4297 37.4832 26.4976 37.3923C26.5656 37.3013 26.6144 37.1971 26.6415 37.0853C26.6685 36.9735 26.6732 36.8565 26.6552 36.7409C26.6372 36.6254 26.5969 36.5136 26.5366 36.4119C26.456 36.2758 26.3422 36.162 26.2065 36.0819C26.0707 36.0017 25.9179 35.9569 25.7635 35.9542ZM32.0318 36.1928C31.8005 36.2087 31.5888 36.3167 31.4433 36.493C31.2978 36.6693 31.2303 36.8997 31.2555 37.1335C31.2555 37.1335 32.1395 45.4628 35.7986 53.2639C35.8488 53.3708 35.9191 53.4675 36.0053 53.5486C36.0916 53.6297 36.1922 53.6937 36.3013 53.7367C36.4105 53.7797 36.526 53.801 36.6414 53.7994C36.7568 53.7978 36.8697 53.7734 36.9738 53.7273C37.1836 53.6345 37.3445 53.4601 37.4213 53.2422C37.4982 53.0244 37.4846 52.7809 37.3836 52.5654C33.893 45.1235 33.0014 37.0228 33.0014 37.0228C32.9894 36.9064 32.9549 36.7926 32.8996 36.6878C32.8443 36.5831 32.7694 36.4896 32.6793 36.4125C32.5892 36.3354 32.4857 36.2762 32.3746 36.2385C32.2635 36.2008 32.147 36.1853 32.0318 36.1928Z" fill="#F5671F"/>
<path d="M90.6525 1.83496C87.9375 1.83941 85.2787 2.41982 82.8492 3.53834C82.8975 3.56511 82.9438 3.58921 82.9935 3.61799C82.9935 3.61799 79.039 22.6218 101.216 38.54C101.214 38.5501 101.214 38.5568 101.211 38.5668C104.265 36.918 106.775 34.4397 108.471 31.4C110.167 28.3602 110.984 24.8748 110.833 21.321C110.61 16.1535 108.359 11.1975 104.574 7.54331C100.79 3.88914 95.7818 1.83519 90.6525 1.83496ZM79.0073 5.90897C76.7472 7.72834 74.9543 10.0635 73.7661 12.7349C72.578 15.4064 72.026 18.3432 72.153 21.32C72.3764 26.4876 74.6283 31.4435 78.4132 35.0973C82.1981 38.7512 87.2061 40.8037 92.3353 40.8035C93.7346 40.8022 95.123 40.648 96.4761 40.3435C78.2605 26.2837 78.8505 8.22705 79.0073 5.90897Z" fill="#474882"/>
<path d="M90.6123 0.950195C87.7739 0.953542 84.9954 1.56206 82.4556 2.73139C82.2956 2.83121 82.1749 2.98241 82.1117 3.16193C82.0485 3.34145 82.0462 3.5394 82.1054 3.72564C82.0196 4.17775 81.1948 8.71345 82.9383 15.3029C84.7667 22.2131 89.4629 31.1374 100.664 39.2012C100.799 39.3227 100.965 39.4021 101.141 39.4289C101.317 39.4558 101.495 39.4289 101.651 39.3517C108.156 35.8394 112.033 28.8913 111.712 21.3209C111.227 10.0815 101.768 0.950697 90.6123 0.950195C90.6129 0.950195 90.6117 0.950195 90.6123 0.950195ZM90.6906 2.72097C90.6897 2.72097 90.6911 2.72097 90.6906 2.72097C100.896 2.72271 109.511 11.0389 109.954 21.3206C110.237 28.0314 106.867 34.1408 101.24 37.432C90.7078 29.6995 86.3444 21.3654 84.6383 14.9173C82.9921 8.69549 83.7451 4.58338 83.8283 4.15107C85.9911 3.24637 88.309 2.72509 90.6906 2.72097ZM79.0757 5.03115C78.845 5.0029 78.6165 5.06694 78.4397 5.20925C73.6518 9.06351 71.0053 15.0144 71.2742 21.3206C71.7601 32.56 81.2173 41.69 92.3734 41.6895C93.8363 41.6886 95.2893 41.5271 96.7039 41.2087C96.8644 41.1723 97.0093 41.0905 97.122 40.9726C97.2347 40.8547 97.3107 40.7057 97.3409 40.5426C97.371 40.3796 97.3542 40.2093 97.2925 40.0514C97.2307 39.8936 97.1265 39.7547 96.992 39.6507C79.0913 25.8341 79.7391 8.1671 79.8852 6.00804C79.9008 5.7762 79.8245 5.54353 79.6729 5.36059C79.5214 5.17765 79.3067 5.05935 79.0757 5.03115ZM78.1825 8.03656C78.2122 13.1932 79.7499 27.3698 94.4596 39.6783C93.7386 39.766 93.028 39.918 92.297 39.9187C82.0908 39.9192 73.4764 31.603 73.0319 21.3206C72.8156 16.252 74.7563 11.5178 78.1825 8.03656Z" fill="#474882"/>
</svg>
