<svg width="109" height="133" viewBox="0 0 109 133" fill="none" xmlns="http://www.w3.org/2000/svg">
<path d="M30.6832 6.62496L30.3853 6.50275L30.08 6.60517L28.5238 7.1273L27.8994 7.33682L27.9356 7.99449L30.3564 51.9427L30.4016 52.7637L31.2237 52.7597L31.2196 51.8952C31.2237 52.7597 31.224 52.7597 31.2243 52.7597L31.2252 52.7597L31.2282 52.7597L31.2387 52.7596L31.2779 52.7592C31.312 52.7588 31.362 52.7582 31.4276 52.757C31.5587 52.7546 31.7521 52.7502 32.0048 52.7422C32.51 52.726 33.2523 52.6952 34.2076 52.6362C36.1181 52.5181 38.8814 52.2875 42.3056 51.837C49.1528 50.9361 58.6497 49.155 69.2595 45.6329C79.871 42.1103 88.7433 37.7421 94.9635 34.2547C98.0743 32.5105 100.524 30.9855 102.198 29.8948C103.035 29.3493 103.679 28.9124 104.114 28.6108C104.332 28.4601 104.498 28.3431 104.61 28.2633C104.634 28.2462 104.656 28.2309 104.675 28.2172C104.7 28.199 104.721 28.1839 104.738 28.172L104.771 28.148L104.78 28.1416L104.782 28.1398L104.783 28.1392C104.783 28.139 104.783 28.1389 104.273 27.4408L104.783 28.1389L106.557 26.8429L104.376 26.5824C78.8313 23.5314 54.4453 16.3734 30.6832 6.62496Z" fill="#FF9CF6" stroke="#E157C8" stroke-width="1.72908"/>
<path d="M25.0771 73.3914L25.1915 7.58398L28.8285 7.58398L31.7564 70.5132" fill="#FF8400"/>
<path d="M25.1916 6.70898C24.7112 6.70898 24.3224 7.10042 24.3224 7.58396L24.208 73.3914C24.208 73.8749 24.5969 74.2663 25.0772 74.2663C25.5576 74.2663 25.9465 73.8749 25.9465 73.3914L26.0608 8.43591H28.0051L30.8873 70.5592C30.9102 71.0428 31.3219 71.4112 31.7794 71.3881C32.2598 71.3651 32.6257 70.9507 32.6029 70.4901L29.675 7.53791C29.6521 7.0774 29.2632 6.70898 28.8057 6.70898H25.1916Z" fill="#DA5205"/>
<path d="M83.0051 73.0429C90.8724 90.2741 89.1433 103.676 86.8955 112.292C68.0486 125.868 48.9422 126.39 33.9857 126.216L34.1586 130.567C30.7004 131.263 28.0204 131.176 26.7236 129.697L25.859 126.129C17.3866 123.953 1.39256 122.648 1.91128 109.594C2.08419 106.374 4.15906 104.459 6.32041 103.154C4.07261 101.239 -1.11462 95.3215 0.873824 88.0113C1.65191 85.1395 3.46743 82.7898 5.88814 82.0936C3.81325 78.8736 2.43002 75.3925 4.24555 70.7801C6.57981 64.8624 15.2252 63.9051 21.1905 64.8624C23.8706 62.0775 30.614 54.0711 39.1729 55.2025C58.5386 57.9003 63.6394 65.2105 71.5067 70.9542C74.5326 73.0428 81.8812 70.4321 83.0051 73.0429Z" fill="#FFCD00"/>
<path d="M33.7263 97.9326L34.2451 130.48L26.81 129.61L26.0319 122.822C28.6256 118.471 33.2941 115.251 25.4268 105.591C28.7985 104.808 31.4785 102.11 33.7263 97.9326Z" fill="#FF8400"/>
<path d="M34.6799 98.0195L32.2591 101.588L32.1727 102.458C32.432 102.197 32.605 101.936 32.8643 101.588C32.7779 109.681 32.7779 117.687 33.2101 126.216L33.383 129.697C32.0862 129.958 30.7894 130.132 29.8384 129.958C28.801 129.871 28.1958 129.523 27.6771 129.088L26.9854 122.735C27.4177 122.387 27.85 122.039 28.2822 121.604C28.4552 121.43 28.6281 121.256 28.7145 121.081L27.4177 121.604L25.2564 123.083L25.1699 123.953C25.2564 123.953 25.3428 123.866 25.4293 123.866L26.1209 129.871C26.1209 130.045 26.2074 130.219 26.3803 130.393C27.2448 131.351 28.4552 131.786 29.8384 131.96C31.2217 132.134 32.8643 131.96 34.5934 131.525C35.0257 131.438 35.285 131.09 35.285 130.654L35.1121 126.303C34.5934 116.73 34.7663 107.679 34.7663 98.4547C34.6798 98.1936 34.6799 98.1066 34.6799 98.0195Z" fill="#DA5205"/>
<path d="M37.7926 54.5068C36.4094 54.5068 35.1126 54.5939 33.8158 54.855C30.444 55.5512 27.2452 57.9009 24.8245 60.0765C22.4038 62.2522 20.7612 64.2538 20.7612 64.2538C20.7612 64.2538 18.5999 67.0386 17.3895 70.6067C16.7843 72.4342 16.3521 74.4358 16.525 76.4375C16.6979 78.4391 17.6489 80.4407 19.4644 82.0072C21.7122 83.8347 24.0464 84.5309 26.2078 84.3569C28.3691 84.2698 30.444 83.3995 32.1731 82.3552C35.0261 80.6147 36.4094 78.7872 37.0145 78.091C37.1874 78.8742 37.4468 80.2666 39.003 82.2682C39.003 82.7034 38.9165 84.0087 38.052 85.3141C37.0145 87.0547 34.7667 88.9692 29.4066 89.4914C15.2281 90.7968 6.66918 81.485 6.66918 81.485C6.32337 81.1369 5.80465 81.1369 5.45883 81.398C5.11302 81.7461 5.11301 82.2682 5.37237 82.6163C5.37237 82.6163 14.5365 92.6243 29.4931 91.2319C30.5305 91.1449 31.5679 90.9708 32.4325 90.7968C33.7293 93.4946 33.4699 95.8443 32.7783 98.107C31.6544 100.892 29.3201 103.59 25.6891 104.547C22.058 105.591 17.2166 105.069 13.4126 104.199C9.60863 103.329 6.75564 102.197 6.75564 102.197C6.32337 102.023 5.80466 102.284 5.63175 102.719C5.45884 103.155 5.71821 103.677 6.15048 103.851C6.15048 103.851 9.08992 104.982 13.0668 105.939C16.7843 106.723 21.3664 107.332 25.3432 106.461C25.862 106.723 26.813 107.68 27.5046 109.159C28.2827 110.726 28.8879 112.814 28.8879 114.903C28.8879 116.905 28.3691 118.906 26.9859 120.473C25.6026 122.039 23.3548 123.171 19.6373 123.432C19.1186 123.432 18.7727 123.867 18.8592 124.389C18.8592 124.824 19.2915 125.259 19.8102 125.172C21.9715 124.998 23.7006 124.563 25.1704 123.867L27.0723 122.648L27.9369 121.952L28.8014 120.995C30.1847 119.167 30.7034 116.992 30.7034 114.816C30.7034 112.466 30.0982 110.117 29.1472 108.376C28.6285 107.419 28.1098 106.461 27.5046 105.852C29.493 105.069 31.1357 103.851 32.346 102.458C33.4699 101.153 34.248 99.4124 34.7667 97.9329C35.6313 95.2351 35.5448 92.3633 34.248 90.2746C36.9281 89.3174 38.5707 87.7508 39.5217 86.2714C40.0404 85.4882 40.2998 84.6179 40.4727 84.0087C43.3257 86.7936 48.0806 89.1433 55.5157 88.7082C55.9479 88.7082 56.3802 88.273 56.2938 87.7509C56.2938 87.3157 55.8615 86.8806 55.3428 86.9677C47.6484 87.4898 43.4121 84.792 40.9914 82.0942C38.5707 79.3963 37.9655 76.6115 37.9655 76.6115C37.7926 75.9153 36.9281 75.6542 36.4094 76.2634C36.4094 76.2634 34.248 78.9612 31.1357 80.8758C29.5795 81.8331 27.8504 82.5293 26.0349 82.6163C24.2194 82.7034 22.4038 82.1812 20.4154 80.6147C18.8592 79.3093 18.254 77.8299 18.0811 76.2634C17.9082 74.6099 18.254 72.8694 18.8592 71.2159C19.9831 67.9089 21.9715 65.2981 21.9715 65.2981C21.9715 65.2981 23.5277 63.3835 25.862 61.3819C28.1962 59.2933 31.3086 57.1177 34.0751 56.5085C36.9281 55.8993 40.905 56.2474 44.0173 56.8566C47.2161 57.3787 49.5504 58.1619 49.5504 58.1619C49.9826 58.336 50.5014 58.0749 50.5878 57.5528C50.7607 57.1176 50.5014 56.5955 49.9826 56.5085C49.9826 56.5085 47.4755 55.7252 44.1902 55.2031C42.4611 54.855 40.0404 54.5939 37.7926 54.5068Z" fill="#F5671F"/>
<path fill-rule="evenodd" clip-rule="evenodd" d="M30.1848 4.55308C30.1848 6.38063 28.7151 7.86006 26.8995 7.86006C25.084 7.86006 23.6143 6.38063 23.6143 4.55308C23.6143 2.72553 25.084 1.24609 26.8995 1.24609C28.7151 1.24609 30.1848 2.72553 30.1848 4.55308Z" fill="#FFCD00"/>
<path fill-rule="evenodd" clip-rule="evenodd" d="M26.8998 0.289063C24.5655 0.289063 22.75 2.20363 22.75 4.46631C22.75 6.72899 24.652 8.64361 26.8998 8.64361C29.2341 8.64361 31.0496 6.72899 31.0496 4.46631C31.0496 2.20363 29.2341 0.289063 26.8998 0.289063ZM26.8998 2.02959C28.2831 2.02959 29.3205 3.16092 29.3205 4.46631C29.3205 5.7717 28.1966 6.90309 26.8998 6.90309C25.5165 6.90309 24.4791 5.7717 24.4791 4.46631C24.4791 3.16092 25.5165 2.02959 26.8998 2.02959Z" fill="#DA5205"/>
<path d="M69.0859 47.8056C68.8266 47.7186 68.6537 47.8056 68.3943 47.8926C63.38 50.8515 58.1062 52.679 52.1409 52.9401C51.6222 52.9401 51.2764 53.3752 51.2764 53.8104C51.2764 54.2455 51.7086 54.6806 52.1409 54.6806C58.3656 54.4195 63.9851 52.505 69.1724 49.459C69.6046 49.198 69.6911 48.6758 69.5182 48.2407C69.5182 47.9796 69.3453 47.8926 69.0859 47.8056Z" fill="#E157C8"/>
</svg>
