<svg width="208" height="103" viewBox="0 0 208 103" fill="none" xmlns="http://www.w3.org/2000/svg">
<path d="M124.75 66.9968C124.35 73.4468 114.5 75.1368 113.9 75.2368H113.88C112.81 79.2868 107.97 82.9568 99.6295 84.2768C93.1795 85.2968 84.5095 84.6968 79.0795 84.1068C79.0795 84.1268 79.0596 84.1568 79.0596 84.1768C78.5096 87.6768 77.1695 91.1268 75.1595 94.0568L64.9595 108.897C45.9795 106.557 10.6 118.33 1.5 103.5L52.9695 59.9768C52.9695 59.9768 56.3495 48.6368 65.3795 45.7068C67.1695 45.1368 68.4095 43.4768 68.7595 41.6068C69.8295 35.7768 72.9795 23.9568 80.9495 25.0768C89.6595 26.3168 88.9196 35.0068 88.0496 39.1768C87.7496 40.5468 88.3995 41.9068 89.6395 42.5268C93.8095 44.6168 103.32 49.0568 112.48 50.9168C121.29 52.7068 120.55 58.7868 120.35 59.8068C123.55 61.1468 124.97 63.6768 124.77 67.0068L124.75 66.9968Z" fill="#FFE370"/>
<path d="M1.99951 104.5L52.9595 59.9768C52.9595 59.9768 56.3396 48.6168 65.3596 45.7068C67.1596 45.1268 68.3896 43.4668 68.7296 41.5968C69.7996 35.7768 72.9696 23.9368 80.9296 25.0768C89.6296 26.3168 88.8895 34.9968 88.0095 39.1668C87.7195 40.5268 88.3595 41.9068 89.5995 42.5268C93.7695 44.6168 103.29 49.0368 112.45 50.9068C121.61 52.7768 120.37 58.9868 120.37 58.9868" stroke="#B92C00" stroke-width="2.48" stroke-linecap="round" stroke-linejoin="round"/>
<path d="M113.87 75.2268C113.87 75.2268 124.36 73.6368 124.75 66.9768C125.06 61.8168 121.5 58.5768 113.26 58.6568C106.27 58.7268 100.03 58.1768 95.5095 54.6168" stroke="#B92C00" stroke-width="2.48" stroke-linecap="round" stroke-linejoin="round"/>
<path d="M94.0895 70.3867C99.6395 66.8467 111.05 64.2067 113.63 70.8667C115.78 76.3867 110.95 82.4767 99.6295 84.2667C89.4895 85.8667 73.9595 83.4767 73.9595 83.4767" stroke="#B92C00" stroke-width="2.48" stroke-linecap="round" stroke-linejoin="round"/>
<path d="M79.0496 84.1768C78.5196 87.7168 77.1895 91.0968 75.1495 94.0468L64.9296 108.887" stroke="#B92C00" stroke-width="2.48" stroke-linecap="round" stroke-linejoin="round"/>
<path d="M66.5195 64.9668C66.5195 64.9668 71.1695 61.4868 76.6595 61.4868C82.1495 61.4868 85.1096 64.9668 85.1096 64.9668" stroke="#B92C00" stroke-width="2.48" stroke-linecap="round" stroke-linejoin="round"/>
<path d="M160.531 36.3235C161.901 34.6765 164.205 34.1511 166.154 35.0409L200.843 50.875C203.565 52.1173 204.474 55.536 202.729 57.9663L184.258 83.6947C182.795 85.7315 180.002 86.2809 177.877 84.9498L144.482 64.0276C142.045 62.5005 141.513 59.1746 143.353 56.9638L160.531 36.3235Z" fill="#FFE680" stroke="#B92C00" stroke-width="2.5"/>
<path d="M151.859 24.779C152.92 22.8853 155.13 21.9519 157.227 22.5116L196.105 32.887C198.966 33.6507 200.439 36.819 199.178 39.4991L184.655 70.356C183.574 72.653 180.878 73.6939 178.533 72.7193L140.042 56.7159C137.417 55.6247 136.332 52.4878 137.722 50.008L151.859 24.779Z" fill="#FFE680" stroke="#B92C00" stroke-width="2.5"/>
<path d="M135.489 10.4432C136.164 8.40494 138.122 7.07281 140.266 7.19375L189.581 9.97594C192.563 10.1442 194.652 12.99 193.918 15.8851L183.694 56.2335C183.077 58.6683 180.671 60.202 178.204 59.7334L127.989 50.1987C125.167 49.663 123.463 46.7654 124.366 44.0391L135.489 10.4432Z" fill="#FFE680" stroke="#B92C00" stroke-width="2.5"/>
<path d="M151.368 38.0403L154.206 25.0173C154.319 24.4969 154.924 24.2572 155.363 24.5585L166.098 31.9236C166.588 32.2599 166.511 33.0056 165.962 33.2343L152.389 38.8923C151.83 39.1256 151.239 38.6328 151.368 38.0403Z" fill="#FF9CF6" stroke="#B92C00" stroke-width="2.5"/>
</svg>
